<svg id="visual" viewBox="0 0 1024 768" width="1024" height="768" xmlns="http://www.w3.org/2000/svg" xmlns:xlink="http://www.w3.org/1999/xlink" version="1.1"><rect x="0" y="0" width="1024" height="768" fill="#00796b"></rect><defs><linearGradient id="grad1_0" x1="25%" y1="0%" x2="100%" y2="100%"><stop offset="23.333333333333336%" stop-color="#64dd17" stop-opacity="1"></stop><stop offset="76.66666666666666%" stop-color="#64dd17" stop-opacity="1"></stop></linearGradient></defs><defs><linearGradient id="grad1_1" x1="25%" y1="0%" x2="100%" y2="100%"><stop offset="23.333333333333336%" stop-color="#64dd17" stop-opacity="1"></stop><stop offset="76.66666666666666%" stop-color="#39ce40" stop-opacity="1"></stop></linearGradient></defs><defs><linearGradient id="grad1_2" x1="25%" y1="0%" x2="100%" y2="100%"><stop offset="23.333333333333336%" stop-color="#00be56" stop-opacity="1"></stop><stop offset="76.66666666666666%" stop-color="#39ce40" stop-opacity="1"></stop></linearGradient></defs><defs><linearGradient id="grad1_3" x1="25%" y1="0%" x2="100%" y2="100%"><stop offset="23.333333333333336%" stop-color="#00be56" stop-opacity="1"></stop><stop offset="76.66666666666666%" stop-color="#00ad64" stop-opacity="1"></stop></linearGradient></defs><defs><linearGradient id="grad1_4" x1="25%" y1="0%" x2="100%" y2="100%"><stop offset="23.333333333333336%" stop-color="#009c6c" stop-opacity="1"></stop><stop offset="76.66666666666666%" stop-color="#00ad64" stop-opacity="1"></stop></linearGradient></defs><defs><linearGradient id="grad1_5" x1="25%" y1="0%" x2="100%" y2="100%"><stop offset="23.333333333333336%" stop-color="#009c6c" stop-opacity="1"></stop><stop offset="76.66666666666666%" stop-color="#008b6e" stop-opacity="1"></stop></linearGradient></defs><defs><linearGradient id="grad1_6" x1="25%" y1="0%" x2="100%" y2="100%"><stop offset="23.333333333333336%" stop-color="#00796b" stop-opacity="1"></stop><stop offset="76.66666666666666%" stop-color="#008b6e" stop-opacity="1"></stop></linearGradient></defs><defs><linearGradient id="grad2_0" x1="0%" y1="0%" x2="75%" y2="100%"><stop offset="23.333333333333336%" stop-color="#64dd17" stop-opacity="1"></stop><stop offset="76.66666666666666%" stop-color="#64dd17" stop-opacity="1"></stop></linearGradient></defs><defs><linearGradient id="grad2_1" x1="0%" y1="0%" x2="75%" y2="100%"><stop offset="23.333333333333336%" stop-color="#39ce40" stop-opacity="1"></stop><stop offset="76.66666666666666%" stop-color="#64dd17" stop-opacity="1"></stop></linearGradient></defs><defs><linearGradient id="grad2_2" x1="0%" y1="0%" x2="75%" y2="100%"><stop offset="23.333333333333336%" stop-color="#39ce40" stop-opacity="1"></stop><stop offset="76.66666666666666%" stop-color="#00be56" stop-opacity="1"></stop></linearGradient></defs><defs><linearGradient id="grad2_3" x1="0%" y1="0%" x2="75%" y2="100%"><stop offset="23.333333333333336%" stop-color="#00ad64" stop-opacity="1"></stop><stop offset="76.66666666666666%" stop-color="#00be56" stop-opacity="1"></stop></linearGradient></defs><defs><linearGradient id="grad2_4" x1="0%" y1="0%" x2="75%" y2="100%"><stop offset="23.333333333333336%" stop-color="#00ad64" stop-opacity="1"></stop><stop offset="76.66666666666666%" stop-color="#009c6c" stop-opacity="1"></stop></linearGradient></defs><defs><linearGradient id="grad2_5" x1="0%" y1="0%" x2="75%" y2="100%"><stop offset="23.333333333333336%" stop-color="#008b6e" stop-opacity="1"></stop><stop offset="76.66666666666666%" stop-color="#009c6c" stop-opacity="1"></stop></linearGradient></defs><defs><linearGradient id="grad2_6" x1="0%" y1="0%" x2="75%" y2="100%"><stop offset="23.333333333333336%" stop-color="#008b6e" stop-opacity="1"></stop><stop offset="76.66666666666666%" stop-color="#00796b" stop-opacity="1"></stop></linearGradient></defs><g transform="translate(1024, 0)"><path d="M0 320C-12.4 315.2 -24.8 310.4 -37.5 308.7C-50.1 307.1 -63.1 308.7 -75.6 306.8C-88.2 305 -100.4 299.7 -110.6 291.7C-120.9 283.8 -129.1 273.2 -141.3 269.2C-153.5 265.2 -169.6 267.7 -181.8 263.4C-194 259 -202.2 247.7 -209.5 236.5C-216.9 225.4 -223.4 214.3 -229.8 203.6C-236.2 192.8 -242.5 182.4 -250.2 172.7C-257.9 163 -266.9 154 -273.6 143.6C-280.3 133.2 -284.8 121.4 -288.9 109.6C-293.1 97.8 -296.9 86 -301 74.2C-305.1 62.3 -309.5 50.4 -312.7 38C-315.9 25.6 -318 12.8 -320 0L0 0Z" fill="#00826d"></path><path d="M0 274.3C-10.6 270.2 -21.3 266 -32.1 264.6C-43 263.2 -54 264.6 -64.8 263C-75.6 261.4 -86.1 256.9 -94.8 250.1C-103.6 243.2 -110.7 234.2 -121.1 230.7C-131.5 227.3 -145.4 229.5 -155.8 225.7C-166.3 222 -173.3 212.3 -179.6 202.7C-185.9 193.2 -191.5 183.7 -197 174.5C-202.5 165.3 -207.9 156.3 -214.4 148C-221 139.7 -228.7 132 -234.5 123.1C-240.3 114.2 -244.1 104 -247.6 93.9C-251.2 83.8 -254.5 73.8 -258 63.6C-261.5 53.4 -265.3 43.2 -268 32.5C-270.8 21.9 -272.5 11 -274.3 0L0 0Z" fill="#00946e"></path><path d="M0 228.6C-8.9 225.1 -17.7 221.7 -26.8 220.5C-35.8 219.4 -45 220.5 -54 219.2C-63 217.8 -71.7 214 -79 208.4C-86.3 202.7 -92.2 195.1 -100.9 192.3C-109.6 189.4 -121.1 191.2 -129.8 188.1C-138.5 185 -144.4 176.9 -149.7 168.9C-154.9 161 -159.6 153.1 -164.1 145.4C-168.7 137.7 -173.2 130.3 -178.7 123.4C-184.2 116.4 -190.6 110 -195.4 102.6C-200.2 95.1 -203.4 86.7 -206.4 78.3C-209.3 69.8 -212.1 61.5 -215 53C-217.9 44.5 -221.1 36 -223.4 27.1C-225.7 18.3 -227.1 9.1 -228.6 0L0 0Z" fill="#00a569"></path><path d="M0 182.9C-7.1 180.1 -14.2 177.3 -21.4 176.4C-28.7 175.5 -36 176.4 -43.2 175.3C-50.4 174.3 -57.4 171.2 -63.2 166.7C-69.1 162.2 -73.8 156.1 -80.7 153.8C-87.7 151.5 -96.9 153 -103.9 150.5C-110.8 148 -115.5 141.5 -119.7 135.2C-123.9 128.8 -127.7 122.5 -131.3 116.3C-135 110.2 -138.6 104.2 -143 98.7C-147.3 93.1 -152.5 88 -156.3 82.1C-160.2 76.1 -162.7 69.3 -165.1 62.6C-167.5 55.9 -169.6 49.2 -172 42.4C-174.3 35.6 -176.9 28.8 -178.7 21.7C-180.5 14.6 -181.7 7.3 -182.9 0L0 0Z" fill="#00b65e"></path><path d="M0 137.1C-5.3 135.1 -10.6 133 -16.1 132.3C-21.5 131.6 -27 132.3 -32.4 131.5C-37.8 130.7 -43 128.4 -47.4 125C-51.8 121.6 -55.3 117.1 -60.5 115.4C-65.8 113.6 -72.7 114.7 -77.9 112.9C-83.1 111 -86.7 106.2 -89.8 101.4C-93 96.6 -95.7 91.9 -98.5 87.2C-101.2 82.6 -103.9 78.2 -107.2 74C-110.5 69.9 -114.4 66 -117.3 61.5C-120.1 57.1 -122.1 52 -123.8 47C-125.6 41.9 -127.2 36.9 -129 31.8C-130.8 26.7 -132.6 21.6 -134 16.3C-135.4 11 -136.3 5.5 -137.1 0L0 0Z" fill="#1fc64c"></path><path d="M0 91.4C-3.5 90.1 -7.1 88.7 -10.7 88.2C-14.3 87.7 -18 88.2 -21.6 87.7C-25.2 87.1 -28.7 85.6 -31.6 83.4C-34.5 81.1 -36.9 78.1 -40.4 76.9C-43.8 75.8 -48.5 76.5 -51.9 75.2C-55.4 74 -57.8 70.8 -59.9 67.6C-62 64.4 -63.8 61.2 -65.7 58.2C-67.5 55.1 -69.3 52.1 -71.5 49.3C-73.7 46.6 -76.2 44 -78.2 41C-80.1 38.1 -81.4 34.7 -82.5 31.3C-83.7 27.9 -84.8 24.6 -86 21.2C-87.2 17.8 -88.4 14.4 -89.3 10.8C-90.3 7.3 -90.8 3.7 -91.4 0L0 0Z" fill="#4fd630"></path><path d="M0 45.7C-1.8 45 -3.5 44.3 -5.4 44.1C-7.2 43.9 -9 44.1 -10.8 43.8C-12.6 43.6 -14.3 42.8 -15.8 41.7C-17.3 40.5 -18.4 39 -20.2 38.5C-21.9 37.9 -24.2 38.2 -26 37.6C-27.7 37 -28.9 35.4 -29.9 33.8C-31 32.2 -31.9 30.6 -32.8 29.1C-33.7 27.5 -34.6 26.1 -35.7 24.7C-36.8 23.3 -38.1 22 -39.1 20.5C-40 19 -40.7 17.3 -41.3 15.7C-41.9 14 -42.4 12.3 -43 10.6C-43.6 8.9 -44.2 7.2 -44.7 5.4C-45.1 3.7 -45.4 1.8 -45.7 0L0 0Z" fill="#64dd17"></path></g><g transform="translate(0, 768)"><path d="M0 -320C12.7 -316.5 25.4 -313 37.5 -308.7C49.6 -304.5 61 -299.4 73.2 -297.1C85.5 -294.8 98.5 -295.3 111.3 -293.6C124.2 -291.9 136.9 -288.2 147.8 -281.6C158.7 -275 167.8 -265.5 177.8 -257.6C187.8 -249.7 198.6 -243.3 208.9 -235.8C219.2 -228.3 229 -219.6 235.8 -208.9C242.5 -198.1 246.2 -185.2 251.8 -173.8C257.4 -162.4 265 -152.6 270.1 -141.7C275.1 -130.9 277.8 -119.1 286.1 -108.5C294.5 -97.9 308.5 -88.6 310.7 -76.6C312.9 -64.6 303.2 -50 302.8 -36.8C302.3 -23.6 311.2 -11.8 320 0L0 0Z" fill="#00826d"></path><path d="M0 -274.3C10.9 -271.3 21.8 -268.3 32.1 -264.6C42.5 -261 52.3 -256.6 62.8 -254.7C73.3 -252.7 84.4 -253.1 95.4 -251.7C106.5 -250.2 117.3 -247 126.7 -241.4C136 -235.7 143.9 -227.6 152.4 -220.8C160.9 -214 170.2 -208.5 179 -202.1C187.9 -195.7 196.3 -188.3 202.1 -179C207.9 -169.8 211 -158.8 215.9 -149C220.7 -139.2 227.1 -130.8 231.5 -121.5C235.8 -112.2 238.1 -102.1 245.2 -93C252.4 -83.9 264.4 -75.9 266.3 -65.6C268.2 -55.4 259.9 -42.8 259.5 -31.5C259.2 -20.2 266.7 -10.1 274.3 0L0 0Z" fill="#00946e"></path><path d="M0 -228.6C9.1 -226.1 18.2 -223.6 26.8 -220.5C35.4 -217.5 43.6 -213.9 52.3 -212.2C61 -210.6 70.4 -210.9 79.5 -209.7C88.7 -208.5 97.8 -205.8 105.6 -201.1C113.4 -196.4 119.9 -189.7 127 -184C134.1 -178.3 141.8 -173.8 149.2 -168.4C156.6 -163.1 163.6 -156.9 168.4 -149.2C173.2 -141.5 175.9 -132.3 179.9 -124.2C183.9 -116 189.3 -109 192.9 -101.2C196.5 -93.5 198.4 -85.1 204.4 -77.5C210.3 -69.9 220.4 -63.3 221.9 -54.7C223.5 -46.1 216.6 -35.7 216.3 -26.3C216 -16.8 222.3 -8.4 228.6 0L0 0Z" fill="#00a569"></path><path d="M0 -182.9C7.3 -180.9 14.5 -178.9 21.4 -176.4C28.3 -174 34.9 -171.1 41.8 -169.8C48.8 -168.5 56.3 -168.7 63.6 -167.8C71 -166.8 78.2 -164.7 84.4 -160.9C90.7 -157.1 95.9 -151.7 101.6 -147.2C107.3 -142.7 113.5 -139 119.4 -134.7C125.3 -130.4 130.9 -125.5 134.7 -119.4C138.6 -113.2 140.7 -105.8 143.9 -99.3C147.1 -92.8 151.4 -87.2 154.3 -81C157.2 -74.8 158.7 -68.1 163.5 -62C168.3 -56 176.3 -50.6 177.5 -43.8C178.8 -36.9 173.3 -28.6 173 -21C172.8 -13.5 177.8 -6.7 182.9 0L0 0Z" fill="#00b65e"></path><path d="M0 -137.1C5.4 -135.6 10.9 -134.1 16.1 -132.3C21.2 -130.5 26.1 -128.3 31.4 -127.3C36.6 -126.3 42.2 -126.5 47.7 -125.8C53.2 -125.1 58.7 -123.5 63.3 -120.7C68 -117.8 71.9 -113.8 76.2 -110.4C80.5 -107 85.1 -104.3 89.5 -101C93.9 -97.8 98.2 -94.1 101 -89.5C103.9 -84.9 105.5 -79.4 107.9 -74.5C110.3 -69.6 113.6 -65.4 115.7 -60.7C117.9 -56.1 119 -51 122.6 -46.5C126.2 -42 132.2 -38 133.2 -32.8C134.1 -27.7 129.9 -21.4 129.8 -15.8C129.6 -10.1 133.4 -5 137.1 0L0 0Z" fill="#1fc64c"></path><path d="M0 -91.4C3.6 -90.4 7.3 -89.4 10.7 -88.2C14.2 -87 17.4 -85.5 20.9 -84.9C24.4 -84.2 28.1 -84.4 31.8 -83.9C35.5 -83.4 39.1 -82.3 42.2 -80.5C45.3 -78.6 48 -75.9 50.8 -73.6C53.6 -71.3 56.7 -69.5 59.7 -67.4C62.6 -65.2 65.4 -62.8 67.4 -59.7C69.3 -56.6 70.3 -52.9 72 -49.7C73.6 -46.4 75.7 -43.6 77.2 -40.5C78.6 -37.4 79.4 -34 81.7 -31C84.1 -28 88.1 -25.3 88.8 -21.9C89.4 -18.5 86.6 -14.3 86.5 -10.5C86.4 -6.7 88.9 -3.4 91.4 0L0 0Z" fill="#4fd630"></path><path d="M0 -45.7C1.8 -45.2 3.6 -44.7 5.4 -44.1C7.1 -43.5 8.7 -42.8 10.5 -42.4C12.2 -42.1 14.1 -42.2 15.9 -41.9C17.7 -41.7 19.6 -41.2 21.1 -40.2C22.7 -39.3 24 -37.9 25.4 -36.8C26.8 -35.7 28.4 -34.8 29.8 -33.7C31.3 -32.6 32.7 -31.4 33.7 -29.8C34.6 -28.3 35.2 -26.5 36 -24.8C36.8 -23.2 37.9 -21.8 38.6 -20.2C39.3 -18.7 39.7 -17 40.9 -15.5C42.1 -14 44.1 -12.7 44.4 -10.9C44.7 -9.2 43.3 -7.1 43.3 -5.3C43.2 -3.4 44.5 -1.7 45.7 0L0 0Z" fill="#64dd17"></path></g></svg>