<svg id="visual" viewBox="0 0 1920 1080" width="1920" height="1080" xmlns="http://www.w3.org/2000/svg" xmlns:xlink="http://www.w3.org/1999/xlink" version="1.1"><rect x="0" y="0" width="1920" height="1080" fill="#00796b"></rect><defs><linearGradient id="grad1_0" x1="43.8%" y1="0%" x2="100%" y2="100%"><stop offset="14.444444444444446%" stop-color="#64dd17" stop-opacity="1"></stop><stop offset="85.55555555555554%" stop-color="#64dd17" stop-opacity="1"></stop></linearGradient></defs><defs><linearGradient id="grad1_1" x1="43.8%" y1="0%" x2="100%" y2="100%"><stop offset="14.444444444444446%" stop-color="#64dd17" stop-opacity="1"></stop><stop offset="85.55555555555554%" stop-color="#39ce40" stop-opacity="1"></stop></linearGradient></defs><defs><linearGradient id="grad1_2" x1="43.8%" y1="0%" x2="100%" y2="100%"><stop offset="14.444444444444446%" stop-color="#00be56" stop-opacity="1"></stop><stop offset="85.55555555555554%" stop-color="#39ce40" stop-opacity="1"></stop></linearGradient></defs><defs><linearGradient id="grad1_3" x1="43.8%" y1="0%" x2="100%" y2="100%"><stop offset="14.444444444444446%" stop-color="#00be56" stop-opacity="1"></stop><stop offset="85.55555555555554%" stop-color="#00ad64" stop-opacity="1"></stop></linearGradient></defs><defs><linearGradient id="grad1_4" x1="43.8%" y1="0%" x2="100%" y2="100%"><stop offset="14.444444444444446%" stop-color="#009c6c" stop-opacity="1"></stop><stop offset="85.55555555555554%" stop-color="#00ad64" stop-opacity="1"></stop></linearGradient></defs><defs><linearGradient id="grad1_5" x1="43.8%" y1="0%" x2="100%" y2="100%"><stop offset="14.444444444444446%" stop-color="#009c6c" stop-opacity="1"></stop><stop offset="85.55555555555554%" stop-color="#008b6e" stop-opacity="1"></stop></linearGradient></defs><defs><linearGradient id="grad1_6" x1="43.8%" y1="0%" x2="100%" y2="100%"><stop offset="14.444444444444446%" stop-color="#00796b" stop-opacity="1"></stop><stop offset="85.55555555555554%" stop-color="#008b6e" stop-opacity="1"></stop></linearGradient></defs><defs><linearGradient id="grad2_0" x1="0%" y1="0%" x2="56.3%" y2="100%"><stop offset="14.444444444444446%" stop-color="#64dd17" stop-opacity="1"></stop><stop offset="85.55555555555554%" stop-color="#64dd17" stop-opacity="1"></stop></linearGradient></defs><defs><linearGradient id="grad2_1" x1="0%" y1="0%" x2="56.3%" y2="100%"><stop offset="14.444444444444446%" stop-color="#39ce40" stop-opacity="1"></stop><stop offset="85.55555555555554%" stop-color="#64dd17" stop-opacity="1"></stop></linearGradient></defs><defs><linearGradient id="grad2_2" x1="0%" y1="0%" x2="56.3%" y2="100%"><stop offset="14.444444444444446%" stop-color="#39ce40" stop-opacity="1"></stop><stop offset="85.55555555555554%" stop-color="#00be56" stop-opacity="1"></stop></linearGradient></defs><defs><linearGradient id="grad2_3" x1="0%" y1="0%" x2="56.3%" y2="100%"><stop offset="14.444444444444446%" stop-color="#00ad64" stop-opacity="1"></stop><stop offset="85.55555555555554%" stop-color="#00be56" stop-opacity="1"></stop></linearGradient></defs><defs><linearGradient id="grad2_4" x1="0%" y1="0%" x2="56.3%" y2="100%"><stop offset="14.444444444444446%" stop-color="#00ad64" stop-opacity="1"></stop><stop offset="85.55555555555554%" stop-color="#009c6c" stop-opacity="1"></stop></linearGradient></defs><defs><linearGradient id="grad2_5" x1="0%" y1="0%" x2="56.3%" y2="100%"><stop offset="14.444444444444446%" stop-color="#008b6e" stop-opacity="1"></stop><stop offset="85.55555555555554%" stop-color="#009c6c" stop-opacity="1"></stop></linearGradient></defs><defs><linearGradient id="grad2_6" x1="0%" y1="0%" x2="56.3%" y2="100%"><stop offset="14.444444444444446%" stop-color="#008b6e" stop-opacity="1"></stop><stop offset="85.55555555555554%" stop-color="#00796b" stop-opacity="1"></stop></linearGradient></defs><g transform="translate(1920, 0)"><path d="M0 540C-20.6 528.1 -41.2 516.1 -62.2 512.2C-83.2 508.3 -104.7 512.5 -126.1 511.7C-147.6 510.9 -169 505.1 -187.6 494.6C-206.2 484.2 -222 469.1 -242.1 461.3C-262.2 453.5 -286.7 453.1 -306.8 444.4C-326.8 435.8 -342.4 419 -354.1 399.7C-365.8 380.4 -373.5 358.7 -384.7 340.8C-395.9 323 -410.6 308.9 -426.3 294.3C-442 279.6 -458.6 264.4 -468.4 245.8C-478.2 227.3 -481.1 205.5 -489 185.5C-496.9 165.5 -509.7 147.3 -516.5 127.3C-523.4 107.3 -524.2 85.5 -527.1 64C-530 42.5 -535 21.2 -540 0L0 0Z" fill="#00826d"></path><path d="M0 462.9C-17.6 452.6 -35.3 442.4 -53.3 439.1C-71.3 435.7 -89.7 439.3 -108.1 438.6C-126.5 437.9 -144.8 432.9 -160.8 424C-176.7 415 -190.3 402.1 -207.5 395.4C-224.8 388.7 -245.8 388.3 -262.9 380.9C-280.1 373.5 -293.5 359.1 -303.5 342.6C-313.5 326.1 -320.2 307.5 -329.8 292.2C-339.4 276.8 -352 264.8 -365.4 252.2C-378.8 239.7 -393.1 226.6 -401.5 210.7C-409.9 194.8 -412.4 176.1 -419.2 159C-425.9 141.8 -436.9 126.3 -442.7 109.1C-448.6 92 -449.3 73.3 -451.8 54.9C-454.3 36.4 -458.6 18.2 -462.9 0L0 0Z" fill="#00946e"></path><path d="M0 385.7C-14.7 377.2 -29.4 368.7 -44.4 365.9C-59.4 363.1 -74.8 366.1 -90.1 365.5C-105.4 364.9 -120.7 360.8 -134 353.3C-147.3 345.8 -158.6 335.1 -172.9 329.5C-187.3 324 -204.8 323.6 -219.1 317.4C-233.4 311.3 -244.6 299.3 -252.9 285.5C-261.3 271.7 -266.8 256.2 -274.8 243.5C-282.8 230.7 -293.3 220.6 -304.5 210.2C-315.7 199.7 -327.6 188.8 -334.6 175.6C-341.6 162.4 -343.7 146.8 -349.3 132.5C-354.9 118.2 -364.1 105.2 -369 90.9C-373.8 76.7 -374.4 61.1 -376.5 45.7C-378.6 30.3 -382.2 15.2 -385.7 0L0 0Z" fill="#00a569"></path><path d="M0 308.6C-11.8 301.8 -23.5 294.9 -35.5 292.7C-47.6 290.5 -59.8 292.9 -72.1 292.4C-84.3 291.9 -96.6 288.6 -107.2 282.6C-117.8 276.7 -126.9 268.1 -138.4 263.6C-149.9 259.2 -163.8 258.9 -175.3 253.9C-186.7 249 -195.7 239.4 -202.3 228.4C-209 217.4 -213.4 205 -219.8 194.8C-226.3 184.5 -234.7 176.5 -243.6 168.1C-252.6 159.8 -262.1 151.1 -267.7 140.5C-273.3 129.9 -274.9 117.4 -279.4 106C-283.9 94.5 -291.3 84.2 -295.2 72.8C-299.1 61.3 -299.6 48.9 -301.2 36.6C-302.9 24.3 -305.7 12.1 -308.6 0L0 0Z" fill="#00b65e"></path><path d="M0 231.4C-8.8 226.3 -17.6 221.2 -26.7 219.5C-35.7 217.9 -44.9 219.6 -54.1 219.3C-63.2 218.9 -72.4 216.5 -80.4 212C-88.4 207.5 -95.1 201 -103.8 197.7C-112.4 194.4 -122.9 194.2 -131.5 190.5C-140.1 186.8 -146.8 179.6 -151.8 171.3C-156.8 163 -160.1 153.7 -164.9 146.1C-169.7 138.4 -176 132.4 -182.7 126.1C-189.4 119.8 -196.5 113.3 -200.7 105.4C-204.9 97.4 -206.2 88.1 -209.6 79.5C-213 70.9 -218.4 63.1 -221.4 54.6C-224.3 46 -224.7 36.7 -225.9 27.4C-227.2 18.2 -229.3 9.1 -231.4 0L0 0Z" fill="#1fc64c"></path><path d="M0 154.3C-5.9 150.9 -11.8 147.5 -17.8 146.4C-23.8 145.2 -29.9 146.4 -36 146.2C-42.2 146 -48.3 144.3 -53.6 141.3C-58.9 138.3 -63.4 134 -69.2 131.8C-74.9 129.6 -81.9 129.4 -87.6 127C-93.4 124.5 -97.8 119.7 -101.2 114.2C-104.5 108.7 -106.7 102.5 -109.9 97.4C-113.1 92.3 -117.3 88.3 -121.8 84.1C-126.3 79.9 -131 75.5 -133.8 70.2C-136.6 64.9 -137.5 58.7 -139.7 53C-142 47.3 -145.6 42.1 -147.6 36.4C-149.5 30.7 -149.8 24.4 -150.6 18.3C-151.4 12.1 -152.9 6.1 -154.3 0L0 0Z" fill="#4fd630"></path><path d="M0 77.1C-2.9 75.4 -5.9 73.7 -8.9 73.2C-11.9 72.6 -15 73.2 -18 73.1C-21.1 73 -24.1 72.2 -26.8 70.7C-29.5 69.2 -31.7 67 -34.6 65.9C-37.5 64.8 -41 64.7 -43.8 63.5C-46.7 62.3 -48.9 59.9 -50.6 57.1C-52.3 54.3 -53.4 51.2 -55 48.7C-56.6 46.1 -58.7 44.1 -60.9 42C-63.1 39.9 -65.5 37.8 -66.9 35.1C-68.3 32.5 -68.7 29.4 -69.9 26.5C-71 23.6 -72.8 21 -73.8 18.2C-74.8 15.3 -74.9 12.2 -75.3 9.1C-75.7 6.1 -76.4 3 -77.1 0L0 0Z" fill="#64dd17"></path></g><g transform="translate(0, 1080)"><path d="M0 -540C21.1 -534.1 42.3 -528.2 63.8 -525.1C85.2 -522.1 107 -521.8 126.8 -514.6C146.6 -507.4 164.5 -493.4 183.7 -484.3C202.9 -475.3 223.5 -471.3 244.4 -465.7C265.4 -460.2 286.8 -453.1 303.9 -440.3C321 -427.5 333.8 -408.9 348.1 -393C362.5 -377.1 378.4 -363.8 395.2 -350.1C412 -336.4 429.7 -322.3 440.3 -303.9C450.8 -285.6 454.2 -263.1 464.9 -244C475.5 -224.9 493.4 -209.2 499.3 -189.4C505.2 -169.5 499.1 -145.5 504.9 -124.4C510.6 -103.4 528.2 -85.3 536.1 -65.1C543.9 -44.8 541.9 -22.4 540 0L0 0Z" fill="#00826d"></path><path d="M0 -462.9C18.1 -457.8 36.3 -452.8 54.7 -450.1C73.1 -447.5 91.7 -447.2 108.7 -441.1C125.7 -434.9 141 -422.9 157.4 -415.1C173.9 -407.4 191.5 -404 209.5 -399.2C227.5 -394.5 245.8 -388.4 260.5 -377.4C275.1 -366.4 286.1 -350.5 298.4 -336.8C310.7 -323.2 324.3 -311.9 338.8 -300.1C353.2 -288.4 368.4 -276.2 377.4 -260.5C386.4 -244.8 389.3 -225.5 398.5 -209.1C407.6 -192.8 422.9 -179.3 428 -162.3C433 -145.3 427.8 -124.7 432.8 -106.7C437.7 -88.6 452.8 -73.1 459.5 -55.8C466.2 -38.4 464.5 -19.2 462.9 0L0 0Z" fill="#00946e"></path><path d="M0 -385.7C15.1 -381.5 30.2 -377.3 45.5 -375.1C60.9 -372.9 76.4 -372.7 90.6 -367.6C104.7 -362.4 117.5 -352.4 131.2 -346C144.9 -339.5 159.6 -336.6 174.6 -332.7C189.6 -328.7 204.9 -323.7 217.1 -314.5C229.3 -305.3 238.4 -292.1 248.7 -280.7C258.9 -269.3 270.3 -259.9 282.3 -250.1C294.3 -240.3 307 -230.2 314.5 -217.1C322 -204 324.4 -187.9 332 -174.3C339.6 -160.6 352.4 -149.4 356.6 -135.3C360.9 -121.1 356.5 -103.9 360.6 -88.9C364.7 -73.9 377.3 -61 382.9 -46.5C388.5 -32 387.1 -16 385.7 0L0 0Z" fill="#00a569"></path><path d="M0 -308.6C12.1 -305.2 24.2 -301.8 36.4 -300.1C48.7 -298.3 61.2 -298.2 72.5 -294.1C83.8 -290 94 -281.9 105 -276.8C115.9 -271.6 127.7 -269.3 139.7 -266.1C151.7 -263 163.9 -258.9 173.7 -251.6C183.4 -244.3 190.7 -233.6 198.9 -224.6C207.1 -215.5 216.2 -207.9 225.8 -200.1C235.4 -192.2 245.6 -184.1 251.6 -173.7C257.6 -163.2 259.6 -150.3 265.6 -139.4C271.7 -128.5 281.9 -119.5 285.3 -108.2C288.7 -96.9 285.2 -83.1 288.5 -71.1C291.8 -59.1 301.9 -48.8 306.3 -37.2C310.8 -25.6 309.7 -12.8 308.6 0L0 0Z" fill="#00b65e"></path><path d="M0 -231.4C9.1 -228.9 18.1 -226.4 27.3 -225.1C36.5 -223.7 45.9 -223.6 54.4 -220.5C62.8 -217.5 70.5 -211.4 78.7 -207.6C87 -203.7 95.8 -202 104.8 -199.6C113.8 -197.2 122.9 -194.2 130.2 -188.7C137.6 -183.2 143.1 -175.2 149.2 -168.4C155.4 -161.6 162.2 -155.9 169.4 -150.1C176.6 -144.2 184.2 -138.1 188.7 -130.2C193.2 -122.4 194.7 -112.7 199.2 -104.6C203.8 -96.4 211.5 -89.7 214 -81.2C216.5 -72.6 213.9 -62.4 216.4 -53.3C218.8 -44.3 226.4 -36.6 229.7 -27.9C233.1 -19.2 232.3 -9.6 231.4 0L0 0Z" fill="#1fc64c"></path><path d="M0 -154.3C6 -152.6 12.1 -150.9 18.2 -150C24.4 -149.2 30.6 -149.1 36.2 -147C41.9 -145 47 -141 52.5 -138.4C58 -135.8 63.8 -134.7 69.8 -133.1C75.8 -131.5 81.9 -129.5 86.8 -125.8C91.7 -122.1 95.4 -116.8 99.5 -112.3C103.6 -107.7 108.1 -104 112.9 -100C117.7 -96.1 122.8 -92.1 125.8 -86.8C128.8 -81.6 129.8 -75.2 132.8 -69.7C135.9 -64.3 141 -59.8 142.7 -54.1C144.3 -48.4 142.6 -41.6 144.3 -35.6C145.9 -29.5 150.9 -24.4 153.2 -18.6C155.4 -12.8 154.8 -6.4 154.3 0L0 0Z" fill="#4fd630"></path><path d="M0 -77.1C3 -76.3 6 -75.5 9.1 -75C12.2 -74.6 15.3 -74.5 18.1 -73.5C20.9 -72.5 23.5 -70.5 26.2 -69.2C29 -67.9 31.9 -67.3 34.9 -66.5C37.9 -65.7 41 -64.7 43.4 -62.9C45.9 -61.1 47.7 -58.4 49.7 -56.1C51.8 -53.9 54.1 -52 56.5 -50C58.9 -48.1 61.4 -46 62.9 -43.4C64.4 -40.8 64.9 -37.6 66.4 -34.9C67.9 -32.1 70.5 -29.9 71.3 -27.1C72.2 -24.2 71.3 -20.8 72.1 -17.8C72.9 -14.8 75.5 -12.2 76.6 -9.3C77.7 -6.4 77.4 -3.2 77.1 0L0 0Z" fill="#64dd17"></path></g></svg>