<svg id="visual" viewBox="0 0 420 700" width="420" height="700" xmlns="http://www.w3.org/2000/svg" xmlns:xlink="http://www.w3.org/1999/xlink" version="1.1"><rect x="0" y="0" width="420" height="700" fill="#00796b"></rect><defs><linearGradient id="grad1_0" x1="0%" y1="0%" x2="100%" y2="100%"><stop offset="30%" stop-color="#64dd17" stop-opacity="1"></stop><stop offset="70%" stop-color="#64dd17" stop-opacity="1"></stop></linearGradient></defs><defs><linearGradient id="grad1_1" x1="0%" y1="0%" x2="100%" y2="100%"><stop offset="30%" stop-color="#64dd17" stop-opacity="1"></stop><stop offset="70%" stop-color="#39ce40" stop-opacity="1"></stop></linearGradient></defs><defs><linearGradient id="grad1_2" x1="0%" y1="0%" x2="100%" y2="100%"><stop offset="30%" stop-color="#00be56" stop-opacity="1"></stop><stop offset="70%" stop-color="#39ce40" stop-opacity="1"></stop></linearGradient></defs><defs><linearGradient id="grad1_3" x1="0%" y1="0%" x2="100%" y2="100%"><stop offset="30%" stop-color="#00be56" stop-opacity="1"></stop><stop offset="70%" stop-color="#00ad64" stop-opacity="1"></stop></linearGradient></defs><defs><linearGradient id="grad1_4" x1="0%" y1="0%" x2="100%" y2="100%"><stop offset="30%" stop-color="#009c6c" stop-opacity="1"></stop><stop offset="70%" stop-color="#00ad64" stop-opacity="1"></stop></linearGradient></defs><defs><linearGradient id="grad1_5" x1="0%" y1="0%" x2="100%" y2="100%"><stop offset="30%" stop-color="#009c6c" stop-opacity="1"></stop><stop offset="70%" stop-color="#008b6e" stop-opacity="1"></stop></linearGradient></defs><defs><linearGradient id="grad1_6" x1="0%" y1="0%" x2="100%" y2="100%"><stop offset="30%" stop-color="#00796b" stop-opacity="1"></stop><stop offset="70%" stop-color="#008b6e" stop-opacity="1"></stop></linearGradient></defs><defs><linearGradient id="grad2_0" x1="0%" y1="0%" x2="100%" y2="100%"><stop offset="30%" stop-color="#64dd17" stop-opacity="1"></stop><stop offset="70%" stop-color="#64dd17" stop-opacity="1"></stop></linearGradient></defs><defs><linearGradient id="grad2_1" x1="0%" y1="0%" x2="100%" y2="100%"><stop offset="30%" stop-color="#39ce40" stop-opacity="1"></stop><stop offset="70%" stop-color="#64dd17" stop-opacity="1"></stop></linearGradient></defs><defs><linearGradient id="grad2_2" x1="0%" y1="0%" x2="100%" y2="100%"><stop offset="30%" stop-color="#39ce40" stop-opacity="1"></stop><stop offset="70%" stop-color="#00be56" stop-opacity="1"></stop></linearGradient></defs><defs><linearGradient id="grad2_3" x1="0%" y1="0%" x2="100%" y2="100%"><stop offset="30%" stop-color="#00ad64" stop-opacity="1"></stop><stop offset="70%" stop-color="#00be56" stop-opacity="1"></stop></linearGradient></defs><defs><linearGradient id="grad2_4" x1="0%" y1="0%" x2="100%" y2="100%"><stop offset="30%" stop-color="#00ad64" stop-opacity="1"></stop><stop offset="70%" stop-color="#009c6c" stop-opacity="1"></stop></linearGradient></defs><defs><linearGradient id="grad2_5" x1="0%" y1="0%" x2="100%" y2="100%"><stop offset="30%" stop-color="#008b6e" stop-opacity="1"></stop><stop offset="70%" stop-color="#009c6c" stop-opacity="1"></stop></linearGradient></defs><defs><linearGradient id="grad2_6" x1="0%" y1="0%" x2="100%" y2="100%"><stop offset="30%" stop-color="#008b6e" stop-opacity="1"></stop><stop offset="70%" stop-color="#00796b" stop-opacity="1"></stop></linearGradient></defs><g transform="translate(420, 0)"><path d="M0 204.1C-7.7 199.6 -15.3 195.1 -23.6 194.6C-31.9 194.1 -40.8 197.6 -48.1 195.2C-55.4 192.7 -61.1 184.3 -68.8 181.4C-76.4 178.5 -86 181 -94.3 179.7C-102.7 178.5 -109.8 173.6 -115.9 168C-122 162.3 -127.1 155.9 -133.3 150.5C-139.4 145 -146.6 140.5 -151.2 134C-155.8 127.4 -157.8 118.7 -161.3 111.3C-164.8 104 -169.7 97.9 -174.4 91.6C-179.1 85.2 -183.6 78.4 -187.9 71.3C-192.3 64.1 -196.4 56.5 -196.1 48.3C-195.8 40.2 -191 31.4 -191.6 23.3C-192.2 15.1 -198.1 7.6 -204.1 0L0 0Z" fill="#00826d"></path><path d="M0 174.9C-6.6 171.1 -13.2 167.2 -20.3 166.8C-27.3 166.4 -35 169.4 -41.2 167.3C-47.5 165.2 -52.4 158 -59 155.5C-65.5 153 -73.7 155.1 -80.9 154.1C-88 153 -94.1 148.8 -99.4 144C-104.6 139.1 -109 133.6 -114.2 129C-119.5 124.3 -125.7 120.5 -129.6 114.8C-133.5 109.2 -135.3 101.7 -138.3 95.4C-141.2 89.1 -145.5 83.9 -149.5 78.5C-153.5 73 -157.4 67.2 -161.1 61.1C-164.8 55 -168.4 48.4 -168.1 41.4C-167.8 34.4 -163.7 26.9 -164.2 19.9C-164.7 13 -169.8 6.5 -174.9 0L0 0Z" fill="#00946e"></path><path d="M0 145.8C-5.5 142.6 -11 139.3 -16.9 139C-22.8 138.6 -29.1 141.1 -34.4 139.4C-39.6 137.7 -43.7 131.7 -49.1 129.6C-54.6 127.5 -61.4 129.3 -67.4 128.4C-73.3 127.5 -78.4 124 -82.8 120C-87.2 115.9 -90.8 111.4 -95.2 107.5C-99.6 103.6 -104.7 100.4 -108 95.7C-111.3 91 -112.7 84.8 -115.2 79.5C-117.7 74.3 -121.2 70 -124.6 65.4C-128 60.8 -131.2 56 -134.2 50.9C-137.3 45.8 -140.3 40.4 -140.1 34.5C-139.9 28.7 -136.4 22.4 -136.9 16.6C-137.3 10.8 -141.5 5.4 -145.8 0L0 0Z" fill="#00a569"></path><path d="M0 116.6C-4.4 114 -8.8 111.5 -13.5 111.2C-18.2 110.9 -23.3 112.9 -27.5 111.5C-31.7 110.1 -34.9 105.3 -39.3 103.7C-43.7 102 -49.1 103.4 -53.9 102.7C-58.7 102 -62.8 99.2 -66.2 96C-69.7 92.7 -72.7 89.1 -76.2 86C-79.7 82.9 -83.8 80.3 -86.4 76.5C-89 72.8 -90.2 67.8 -92.2 63.6C-94.2 59.4 -97 56 -99.7 52.3C-102.4 48.7 -104.9 44.8 -107.4 40.7C-109.9 36.6 -112.3 32.3 -112.1 27.6C-111.9 23 -109.2 18 -109.5 13.3C-109.8 8.6 -113.2 4.3 -116.6 0L0 0Z" fill="#00b65e"></path><path d="M0 87.5C-3.3 85.5 -6.6 83.6 -10.1 83.4C-13.7 83.2 -17.5 84.7 -20.6 83.6C-23.7 82.6 -26.2 79 -29.5 77.7C-32.8 76.5 -36.9 77.6 -40.4 77C-44 76.5 -47.1 74.4 -49.7 72C-52.3 69.6 -54.5 66.8 -57.1 64.5C-59.8 62.1 -62.8 60.2 -64.8 57.4C-66.8 54.6 -67.6 50.9 -69.1 47.7C-70.6 44.6 -72.7 42 -74.8 39.2C-76.8 36.5 -78.7 33.6 -80.5 30.5C-82.4 27.5 -84.2 24.2 -84.1 20.7C-83.9 17.2 -81.9 13.5 -82.1 10C-82.4 6.5 -84.9 3.2 -87.5 0L0 0Z" fill="#1fc64c"></path><path d="M0 58.3C-2.2 57 -4.4 55.7 -6.8 55.6C-9.1 55.5 -11.7 56.5 -13.7 55.8C-15.8 55.1 -17.5 52.7 -19.7 51.8C-21.8 51 -24.6 51.7 -27 51.4C-29.3 51 -31.4 49.6 -33.1 48C-34.9 46.4 -36.3 44.5 -38.1 43C-39.8 41.4 -41.9 40.2 -43.2 38.3C-44.5 36.4 -45.1 33.9 -46.1 31.8C-47.1 29.7 -48.5 28 -49.8 26.2C-51.2 24.3 -52.5 22.4 -53.7 20.4C-54.9 18.3 -56.1 16.1 -56 13.8C-55.9 11.5 -54.6 9 -54.7 6.6C-54.9 4.3 -56.6 2.2 -58.3 0L0 0Z" fill="#4fd630"></path><path d="M0 29.2C-1.1 28.5 -2.2 27.9 -3.4 27.8C-4.6 27.7 -5.8 28.2 -6.9 27.9C-7.9 27.5 -8.7 26.3 -9.8 25.9C-10.9 25.5 -12.3 25.9 -13.5 25.7C-14.7 25.5 -15.7 24.8 -16.6 24C-17.4 23.2 -18.2 22.3 -19 21.5C-19.9 20.7 -20.9 20.1 -21.6 19.1C-22.3 18.2 -22.5 17 -23 15.9C-23.5 14.9 -24.2 14 -24.9 13.1C-25.6 12.2 -26.2 11.2 -26.8 10.2C-27.5 9.2 -28.1 8.1 -28 6.9C-28 5.7 -27.3 4.5 -27.4 3.3C-27.5 2.2 -28.3 1.1 -29.2 0L0 0Z" fill="#64dd17"></path></g><g transform="translate(0, 700)"><path d="M0 -204.1C7.9 -200.7 15.8 -197.4 23.7 -195.6C31.7 -193.8 39.5 -193.5 47.4 -192.2C55.2 -191 63 -188.8 70.6 -186.1C78.1 -183.4 85.4 -180.2 92.9 -177.1C100.4 -174 108.1 -171 115.3 -167.1C122.5 -163.1 129.3 -158.3 135.3 -152.8C141.4 -147.2 146.7 -140.9 151.9 -134.6C157.2 -128.3 162.2 -121.9 167.1 -115.3C171.9 -108.7 176.6 -101.8 179.7 -94.3C182.9 -86.8 184.6 -78.7 187 -70.9C189.4 -63.1 192.5 -55.6 194.2 -47.9C195.9 -40.1 196.1 -32 197.5 -24C199 -16 201.5 -8 204.1 0L0 0Z" fill="#00826d"></path><path d="M0 -174.9C6.8 -172.1 13.6 -169.2 20.4 -167.6C27.1 -166.1 33.9 -165.9 40.6 -164.8C47.3 -163.7 54 -161.8 60.5 -159.5C67 -157.2 73.2 -154.4 79.7 -151.8C86.1 -149.1 92.7 -146.6 98.8 -143.2C105 -139.8 110.8 -135.7 116 -130.9C121.2 -126.2 125.8 -120.8 130.2 -115.4C134.7 -110 139 -104.5 143.2 -98.8C147.4 -93.2 151.4 -87.3 154.1 -80.9C156.8 -74.4 158.2 -67.5 160.3 -60.8C162.3 -54.1 165 -47.7 166.4 -41C167.9 -34.4 168.1 -27.4 169.3 -20.6C170.5 -13.7 172.7 -6.8 174.9 0L0 0Z" fill="#00946e"></path><path d="M0 -145.8C5.7 -143.4 11.3 -141 17 -139.7C22.6 -138.4 28.2 -138.2 33.8 -137.3C39.4 -136.4 45 -134.8 50.4 -132.9C55.8 -131 61 -128.7 66.4 -126.5C71.7 -124.3 77.2 -122.1 82.4 -119.3C87.5 -116.5 92.3 -113.1 96.7 -109.1C101 -105.1 104.8 -100.7 108.5 -96.2C112.3 -91.6 115.9 -87.1 119.3 -82.4C122.8 -77.6 126.1 -72.7 128.4 -67.4C130.7 -62 131.9 -56.2 133.6 -50.7C135.3 -45.1 137.5 -39.7 138.7 -34.2C139.9 -28.6 140.1 -22.9 141.1 -17.1C142.1 -11.4 143.9 -5.7 145.8 0L0 0Z" fill="#00a569"></path><path d="M0 -116.6C4.5 -114.7 9.1 -112.8 13.6 -111.8C18.1 -110.7 22.6 -110.6 27.1 -109.9C31.6 -109.1 36 -107.9 40.3 -106.3C44.6 -104.8 48.8 -103 53.1 -101.2C57.4 -99.4 61.8 -97.7 65.9 -95.5C70 -93.2 73.9 -90.5 77.3 -87.3C80.8 -84.1 83.9 -80.5 86.8 -76.9C89.8 -73.3 92.7 -69.7 95.5 -65.9C98.2 -62.1 100.9 -58.2 102.7 -53.9C104.5 -49.6 105.5 -45 106.9 -40.5C108.2 -36.1 110 -31.8 111 -27.4C111.9 -22.9 112.1 -18.3 112.9 -13.7C113.7 -9.1 115.2 -4.6 116.6 0L0 0Z" fill="#00b65e"></path><path d="M0 -87.5C3.4 -86 6.8 -84.6 10.2 -83.8C13.6 -83 16.9 -82.9 20.3 -82.4C23.7 -81.9 27 -80.9 30.2 -79.7C33.5 -78.6 36.6 -77.2 39.8 -75.9C43 -74.6 46.3 -73.3 49.4 -71.6C52.5 -69.9 55.4 -67.8 58 -65.5C60.6 -63.1 62.9 -60.4 65.1 -57.7C67.4 -55 69.5 -52.3 71.6 -49.4C73.7 -46.6 75.7 -43.6 77 -40.4C78.4 -37.2 79.1 -33.7 80.1 -30.4C81.2 -27.1 82.5 -23.8 83.2 -20.5C83.9 -17.2 84.1 -13.7 84.7 -10.3C85.3 -6.8 86.4 -3.4 87.5 0L0 0Z" fill="#1fc64c"></path><path d="M0 -58.3C2.3 -57.4 4.5 -56.4 6.8 -55.9C9 -55.4 11.3 -55.3 13.5 -54.9C15.8 -54.6 18 -53.9 20.2 -53.2C22.3 -52.4 24.4 -51.5 26.6 -50.6C28.7 -49.7 30.9 -48.9 32.9 -47.7C35 -46.6 36.9 -45.2 38.7 -43.6C40.4 -42.1 41.9 -40.3 43.4 -38.5C44.9 -36.7 46.3 -34.8 47.7 -32.9C49.1 -31.1 50.5 -29.1 51.4 -27C52.3 -24.8 52.7 -22.5 53.4 -20.3C54.1 -18 55 -15.9 55.5 -13.7C56 -11.5 56 -9.1 56.4 -6.9C56.8 -4.6 57.6 -2.3 58.3 0L0 0Z" fill="#4fd630"></path><path d="M0 -29.2C1.1 -28.7 2.3 -28.2 3.4 -27.9C4.5 -27.7 5.6 -27.6 6.8 -27.5C7.9 -27.3 9 -27 10.1 -26.6C11.2 -26.2 12.2 -25.7 13.3 -25.3C14.3 -24.9 15.4 -24.4 16.5 -23.9C17.5 -23.3 18.5 -22.6 19.3 -21.8C20.2 -21 21 -20.1 21.7 -19.2C22.5 -18.3 23.2 -17.4 23.9 -16.5C24.6 -15.5 25.2 -14.5 25.7 -13.5C26.1 -12.4 26.4 -11.2 26.7 -10.1C27.1 -9 27.5 -7.9 27.7 -6.8C28 -5.7 28 -4.6 28.2 -3.4C28.4 -2.3 28.8 -1.1 29.2 0L0 0Z" fill="#64dd17"></path></g></svg>