<svg id="Capa_1" enable-background="new 0 0 512 512" height="512" viewBox="0 0 512 512" width="512" xmlns="http://www.w3.org/2000/svg"><g><g><path d="m247.211 151h-216.211c-16.569 0-31-13.431-31-30v-121h512v61c0 16.569-14.431 30-31 30h-173.789z" fill="#596c76"/></g><path d="m256 142.211 51.211-51.211h173.789c16.569 0 31-13.431 31-30v-61h-256z" fill="#465a61"/><g><path d="m512 512h-512v-391h234.789l60-60h217.211z" fill="#f3f5f9"/></g><path d="m256 99.789v412.211h256v-451h-217.211z" fill="#e1e6f0"/><g id="Coding_Error_2_"><g><path d="m61 46h30v30h-30z" fill="#b3e6ff"/></g><g><path d="m121 46h30v30h-30z" fill="#b3e6ff"/></g><g><path d="m181 46h30v30h-30z" fill="#b3e6ff"/></g><g><path d="m181 271h-30v-90h-55.811l-39.99 120h65.801v30h30v-30h30zm-60 0h-24.199l20.01-60h4.189z" fill="#ff7559"/><path d="m421 271v-90h-55.811l-39.99 120h65.801v30h30v-30h30v-30zm-30 0h-24.199l20.01-60h4.189z" fill="#e6483a"/><path d="m301 181h-90v150h90zm-30 120h-30v-90h30z" fill="#ff7559"/><path d="m181 391h30v30h-30z" fill="#b3e6ff"/><path d="m241 391h30v30h-30z" fill="#b3e6ff"/><path d="m301 391h30v30h-30z" fill="#9cf"/><path d="m125.395 365.395-19.395 19.394-19.395-19.394-21.21 21.21 19.394 19.395-19.394 19.395 21.21 21.21 19.395-19.394 19.395 19.394 21.21-21.21-19.394-19.395 19.394-19.395z" fill="#ff7559"/><path d="m425.395 365.395-19.395 19.394-19.395-19.394-21.21 21.21 19.394 19.395-19.394 19.395 21.21 21.21 19.395-19.394 19.395 19.394 21.21-21.21-19.394-19.395 19.394-19.395z" fill="#e6483a"/></g></g><path d="m256 391h15v30h-15z" fill="#9cf"/><path d="m256 211h15v90h-15v30h45v-150h-45z" fill="#e6483a"/></g></svg>