<svg id="visual" viewBox="0 0 2560 2000" width="2560" height="2000" xmlns="http://www.w3.org/2000/svg" xmlns:xlink="http://www.w3.org/1999/xlink" version="1.1"><rect x="0" y="0" width="2560" height="2000" fill="#64DD17"></rect><defs><linearGradient id="grad1_0" x1="21.9%" y1="100%" x2="100%" y2="0%"><stop offset="24.4%" stop-color="#00796b" stop-opacity="1"></stop><stop offset="75.6%" stop-color="#00796b" stop-opacity="1"></stop></linearGradient></defs><defs><linearGradient id="grad1_1" x1="21.9%" y1="100%" x2="100%" y2="0%"><stop offset="24.4%" stop-color="#00796b" stop-opacity="1"></stop><stop offset="75.6%" stop-color="#64dd17" stop-opacity="1"></stop></linearGradient></defs><defs><linearGradient id="grad2_0" x1="0%" y1="100%" x2="78.1%" y2="0%"><stop offset="24.4%" stop-color="#00796b" stop-opacity="1"></stop><stop offset="75.6%" stop-color="#00796b" stop-opacity="1"></stop></linearGradient></defs><defs><linearGradient id="grad2_1" x1="0%" y1="100%" x2="78.1%" y2="0%"><stop offset="24.4%" stop-color="#64dd17" stop-opacity="1"></stop><stop offset="75.6%" stop-color="#00796b" stop-opacity="1"></stop></linearGradient></defs><g transform="translate(2560, 2000)"><path d="M-1624.3 0C-1578.9 -280.8 -1533.5 -561.6 -1403.8 -810.5C-1274.1 -1059.4 -1060.2 -1276.4 -812.2 -1406.7C-564.1 -1537 -282.1 -1580.7 0 -1624.3L0 0Z" fill="#00ad64"></path><path d="M-812.2 0C-789.5 -140.4 -766.8 -280.8 -701.9 -405.3C-637.1 -529.7 -530.1 -638.2 -406.1 -703.3C-282.1 -768.5 -141 -790.3 0 -812.2L0 0Z" fill="#00796b"></path></g><g transform="translate(0, 0)"><path d="M1624.3 0C1584.3 288.3 1544.2 576.6 1406.7 812.2C1269.2 1047.7 1034.2 1230.5 783.5 1357.1C532.8 1483.6 266.4 1554 0 1624.3L0 0Z" fill="#00ad64"></path><path d="M812.2 0C792.1 144.2 772.1 288.3 703.3 406.1C634.6 523.9 517.1 615.2 391.8 678.5C266.4 741.8 133.2 777 0 812.2L0 0Z" fill="#00796b"></path></g></svg>