<svg id="visual" viewBox="0 0 1920 2600" width="1920" height="2600" xmlns="http://www.w3.org/2000/svg" xmlns:xlink="http://www.w3.org/1999/xlink" version="1.1"><rect x="0" y="0" width="1920" height="2600" fill="#64DD17"></rect><defs><linearGradient id="grad1_0" x1="0%" y1="100%" x2="100%" y2="0%"><stop offset="30%" stop-color="#00796b" stop-opacity="1"></stop><stop offset="70%" stop-color="#00796b" stop-opacity="1"></stop></linearGradient></defs><defs><linearGradient id="grad1_1" x1="0%" y1="100%" x2="100%" y2="0%"><stop offset="30%" stop-color="#00796b" stop-opacity="1"></stop><stop offset="70%" stop-color="#64dd17" stop-opacity="1"></stop></linearGradient></defs><defs><linearGradient id="grad2_0" x1="0%" y1="100%" x2="100%" y2="0%"><stop offset="30%" stop-color="#00796b" stop-opacity="1"></stop><stop offset="70%" stop-color="#00796b" stop-opacity="1"></stop></linearGradient></defs><defs><linearGradient id="grad2_1" x1="0%" y1="100%" x2="100%" y2="0%"><stop offset="30%" stop-color="#64dd17" stop-opacity="1"></stop><stop offset="70%" stop-color="#00796b" stop-opacity="1"></stop></linearGradient></defs><g transform="translate(1920, 2600)"><path d="M-1616 0C-1573.5 -282.2 -1531 -564.4 -1399.5 -808C-1268 -1051.6 -1047.6 -1256.5 -799.5 -1384.8C-551.4 -1513 -275.7 -1564.5 0 -1616L0 0Z" fill="#00ad64"></path><path d="M-808 0C-786.8 -141.1 -765.5 -282.2 -699.8 -404C-634 -525.8 -523.8 -628.3 -399.8 -692.4C-275.7 -756.5 -137.9 -782.3 0 -808L0 0Z" fill="#00796b"></path></g><g transform="translate(0, 0)"><path d="M1616 0C1554.8 270.1 1493.6 540.2 1366.6 789C1239.6 1037.8 1046.8 1265.2 808 1399.5C569.3 1533.8 284.6 1574.9 0 1616L0 0Z" fill="#00ad64"></path><path d="M808 0C777.4 135.1 746.8 270.1 683.3 394.5C619.8 518.9 523.4 632.6 404 699.8C284.6 766.9 142.3 787.5 0 808L0 0Z" fill="#00796b"></path></g></svg>