<svg id="visual" viewBox="0 0 2560 1640" width="2560" height="1640" xmlns="http://www.w3.org/2000/svg" xmlns:xlink="http://www.w3.org/1999/xlink" version="1.1"><rect x="0" y="0" width="2560" height="1640" fill="#64DD17"></rect><defs><linearGradient id="grad1_0" x1="35.9%" y1="100%" x2="100%" y2="0%"><stop offset="18.780487804878046%" stop-color="#00796b" stop-opacity="1"></stop><stop offset="81.21951219512195%" stop-color="#00796b" stop-opacity="1"></stop></linearGradient></defs><defs><linearGradient id="grad1_1" x1="35.9%" y1="100%" x2="100%" y2="0%"><stop offset="18.780487804878046%" stop-color="#00796b" stop-opacity="1"></stop><stop offset="81.21951219512195%" stop-color="#64dd17" stop-opacity="1"></stop></linearGradient></defs><defs><linearGradient id="grad2_0" x1="0%" y1="100%" x2="64.1%" y2="0%"><stop offset="18.780487804878046%" stop-color="#00796b" stop-opacity="1"></stop><stop offset="81.21951219512195%" stop-color="#00796b" stop-opacity="1"></stop></linearGradient></defs><defs><linearGradient id="grad2_1" x1="0%" y1="100%" x2="64.1%" y2="0%"><stop offset="18.780487804878046%" stop-color="#64dd17" stop-opacity="1"></stop><stop offset="81.21951219512195%" stop-color="#00796b" stop-opacity="1"></stop></linearGradient></defs><g transform="translate(2560, 1640)"><path d="M-1520.1 0C-1465.6 -255.9 -1411.1 -511.7 -1291.2 -745.5C-1171.4 -979.3 -986.2 -1191 -760.1 -1316.5C-534 -1441.9 -267 -1481 0 -1520.1L0 0Z" fill="#00ad64"></path><path d="M-760.1 0C-732.8 -127.9 -705.6 -255.9 -645.6 -372.8C-585.7 -489.6 -493.1 -595.5 -380 -658.2C-267 -721 -133.5 -740.5 0 -760.1L0 0Z" fill="#00796b"></path></g><g transform="translate(0, 0)"><path d="M1520.1 0C1481 267 1441.9 534 1316.5 760.1C1191 986.2 979.3 1171.4 745.5 1291.2C511.7 1411.1 255.9 1465.6 0 1520.1L0 0Z" fill="#00ad64"></path><path d="M760.1 0C740.5 133.5 721 267 658.2 380C595.5 493.1 489.6 585.7 372.8 645.6C255.9 705.6 127.9 732.8 0 760.1L0 0Z" fill="#00796b"></path></g></svg>