<svg id="visual" viewBox="0 0 2560 1640" width="2560" height="1640" xmlns="http://www.w3.org/2000/svg" xmlns:xlink="http://www.w3.org/1999/xlink" version="1.1"><rect x="0" y="0" width="2560" height="1640" fill="#64DD17"></rect><defs><linearGradient id="grad1_0" x1="35.9%" y1="100%" x2="100%" y2="0%"><stop offset="18.780487804878046%" stop-color="#64dd17" stop-opacity="1"></stop><stop offset="81.21951219512195%" stop-color="#64dd17" stop-opacity="1"></stop></linearGradient></defs><defs><linearGradient id="grad2_0" x1="0%" y1="100%" x2="64.1%" y2="0%"><stop offset="18.780487804878046%" stop-color="#64dd17" stop-opacity="1"></stop><stop offset="81.21951219512195%" stop-color="#64dd17" stop-opacity="1"></stop></linearGradient></defs><g transform="translate(2560, 1640)"><path d="M-1520.1 0C-1454.5 -249.5 -1388.9 -498.9 -1270.5 -733.5C-1152 -968.1 -980.6 -1187.8 -760.1 -1316.5C-539.5 -1445.1 -269.8 -1482.6 0 -1520.1L0 0Z" fill="#00796B"></path></g><g transform="translate(0, 0)"><path d="M1520.1 0C1454.1 249.2 1388 498.4 1269.6 733C1151.2 967.6 980.4 1187.7 760.1 1316.5C539.7 1445.2 269.9 1482.7 0 1520.1L0 0Z" fill="#00796B"></path></g></svg>