<svg id="visual" viewBox="0 0 1920 1080" width="1920" height="1080" xmlns="http://www.w3.org/2000/svg" xmlns:xlink="http://www.w3.org/1999/xlink" version="1.1"><rect x="0" y="0" width="1920" height="1080" fill="#00796b"></rect><g transform="translate(1198.7123870882165 545.4028012661689)"><path d="M528.6 -910.5C607.8 -869.8 541.6 -572.1 509.6 -377.6C477.6 -183 479.8 -91.5 549.8 40.4C619.8 172.3 757.6 344.7 705.4 393.4C653.2 442.1 411 367.2 261.7 375C112.5 382.9 56.3 473.4 -74 601.5C-204.2 729.6 -408.3 895.3 -587 904.4C-765.7 913.6 -918.9 766.3 -1041.8 589.5C-1164.8 412.7 -1257.4 206.3 -1140.9 67.3C-1024.4 -71.8 -698.8 -143.7 -576.6 -321.6C-454.3 -499.6 -535.4 -783.7 -473.2 -834.3C-411 -884.9 -205.5 -701.9 9.6 -718.5C224.7 -735.1 449.3 -951.3 528.6 -910.5" fill="none" stroke="#64DD17" stroke-width="6"></path></g></svg>