<svg id="visual" viewBox="0 0 1024 768" width="1024" height="768" xmlns="http://www.w3.org/2000/svg" xmlns:xlink="http://www.w3.org/1999/xlink" version="1.1"><rect x="0" y="0" width="1024" height="768" fill="#00796b"></rect><path d="M933 768L931.5 742.3C930 716.7 927 665.3 931.3 614.2C935.7 563 947.3 512 959 460.8C970.7 409.7 982.3 358.3 978.7 307.2C975 256 956 205 951.2 153.8C946.3 102.7 955.7 51.3 960.3 25.7L965 0L1024 0L1024 25.7C1024 51.3 1024 102.7 1024 153.8C1024 205 1024 256 1024 307.2C1024 358.3 1024 409.7 1024 460.8C1024 512 1024 563 1024 614.2C1024 665.3 1024 716.7 1024 742.3L1024 768Z" fill="#64DD17" stroke-linecap="round" stroke-linejoin="miter"></path></svg>