<svg id="visual" viewBox="0 0 1440 900" width="1440" height="900" xmlns="http://www.w3.org/2000/svg" xmlns:xlink="http://www.w3.org/1999/xlink" version="1.1"><rect x="0" y="0" width="1440" height="900" fill="#00796b"></rect><path d="M1345 900L1347.8 870C1350.7 840 1356.3 780 1367.8 720C1379.3 660 1396.7 600 1408.5 540C1420.3 480 1426.7 420 1428.7 360C1430.7 300 1428.3 240 1418.7 180C1409 120 1392 60 1383.5 30L1375 0L1440 0L1440 30C1440 60 1440 120 1440 180C1440 240 1440 300 1440 360C1440 420 1440 480 1440 540C1440 600 1440 660 1440 720C1440 780 1440 840 1440 870L1440 900Z" fill="#64DD17" stroke-linecap="round" stroke-linejoin="miter"></path></svg>