<svg id="visual" viewBox="0 0 1920 1080" width="1920" height="1080" xmlns="http://www.w3.org/2000/svg" xmlns:xlink="http://www.w3.org/1999/xlink" version="1.1"><rect x="0" y="0" width="1920" height="1080" fill="#00796b"></rect><path d="M1799 1080L1814.7 1044C1830.3 1008 1861.7 936 1867.5 864C1873.3 792 1853.7 720 1848.3 648C1843 576 1852 504 1835.8 432C1819.7 360 1778.3 288 1770.8 216C1763.3 144 1789.7 72 1802.8 36L1816 0L1920 0L1920 36C1920 72 1920 144 1920 216C1920 288 1920 360 1920 432C1920 504 1920 576 1920 648C1920 720 1920 792 1920 864C1920 936 1920 1008 1920 1044L1920 1080Z" fill="#64DD17" stroke-linecap="round" stroke-linejoin="miter"></path></svg>