<svg id="visual" viewBox="0 0 1000 300" width="1000" height="300" xmlns="http://www.w3.org/2000/svg" xmlns:xlink="http://www.w3.org/1999/xlink" version="1.1"><g stroke-width="1" stroke-linejoin="bevel"><path d="M518.6 178L440.4 131L469.4 181Z" fill="#13b75d" stroke="#13b75d"></path><path d="M518.6 178L541.6 123L440.4 131Z" fill="#13b75d" stroke="#13b75d"></path><path d="M518.6 178L628.7 126L541.6 123Z" fill="#00846d" stroke="#00846d"></path><path d="M573.6 0L456.4 0L541.6 123Z" fill="#00ad64" stroke="#00ad64"></path><path d="M541.6 123L456.4 0L440.4 131Z" fill="#13b75d" stroke="#13b75d"></path><path d="M628.7 126L573.6 0L541.6 123Z" fill="#00ad64" stroke="#00ad64"></path><path d="M320.3 85L367.3 233L440.4 131Z" fill="#4fd435" stroke="#4fd435"></path><path d="M440.4 131L367.3 233L469.4 181Z" fill="#008e6e" stroke="#008e6e"></path><path d="M469.4 181L560.6 300L518.6 178Z" fill="#00ad64" stroke="#00ad64"></path><path d="M456.4 0L320.3 85L440.4 131Z" fill="#00846d" stroke="#00846d"></path><path d="M420.4 300L560.6 300L469.4 181Z" fill="#00ad64" stroke="#00ad64"></path><path d="M518.6 178L560.6 300L628.7 126Z" fill="#4fd435" stroke="#4fd435"></path><path d="M367.3 233L420.4 300L469.4 181Z" fill="#28c153" stroke="#28c153"></path><path d="M560.6 300L703.7 207L628.7 126Z" fill="#00996c" stroke="#00996c"></path><path d="M628.7 126L693.7 0L573.6 0Z" fill="#13b75d" stroke="#13b75d"></path><path d="M241.2 227L333.3 300L367.3 233Z" fill="#64dd17" stroke="#64dd17"></path><path d="M367.3 233L333.3 300L420.4 300Z" fill="#28c153" stroke="#28c153"></path><path d="M456.4 0L300.3 0L320.3 85Z" fill="#00796b" stroke="#00796b"></path><path d="M320.3 85L241.2 227L367.3 233Z" fill="#64dd17" stroke="#64dd17"></path><path d="M745.8 60L693.7 0L628.7 126Z" fill="#3bcb46" stroke="#3bcb46"></path><path d="M560.6 300L685.7 300L703.7 207Z" fill="#3bcb46" stroke="#3bcb46"></path><path d="M210.2 0L228.2 129L320.3 85Z" fill="#28c153" stroke="#28c153"></path><path d="M755.8 173L628.7 126L703.7 207Z" fill="#28c153" stroke="#28c153"></path><path d="M755.8 173L745.8 60L628.7 126Z" fill="#00846d" stroke="#00846d"></path><path d="M228.2 129L241.2 227L320.3 85Z" fill="#13b75d" stroke="#13b75d"></path><path d="M745.8 300L755.8 173L703.7 207Z" fill="#28c153" stroke="#28c153"></path><path d="M745.8 60L758.8 0L693.7 0Z" fill="#3bcb46" stroke="#3bcb46"></path><path d="M851.9 0L758.8 0L745.8 60Z" fill="#008e6e" stroke="#008e6e"></path><path d="M685.7 300L745.8 300L703.7 207Z" fill="#00846d" stroke="#00846d"></path><path d="M101.1 300L235.2 300L241.2 227Z" fill="#3bcb46" stroke="#3bcb46"></path><path d="M241.2 227L235.2 300L333.3 300Z" fill="#64dd17" stroke="#64dd17"></path><path d="M300.3 0L210.2 0L320.3 85Z" fill="#4fd435" stroke="#4fd435"></path><path d="M228.2 129L114.1 177L241.2 227Z" fill="#00996c" stroke="#00996c"></path><path d="M210.2 0L137.1 94L228.2 129Z" fill="#00a369" stroke="#00a369"></path><path d="M880.9 223L848.9 99L755.8 173Z" fill="#00996c" stroke="#00996c"></path><path d="M755.8 173L848.9 99L745.8 60Z" fill="#00ad64" stroke="#00ad64"></path><path d="M137.1 94L114.1 177L228.2 129Z" fill="#00796b" stroke="#00796b"></path><path d="M848.9 99L851.9 0L745.8 60Z" fill="#00a369" stroke="#00a369"></path><path d="M745.8 300L880.9 223L755.8 173Z" fill="#00846d" stroke="#00846d"></path><path d="M848.9 99L1000 0L851.9 0Z" fill="#00796b" stroke="#00796b"></path><path d="M745.8 300L859.9 300L880.9 223Z" fill="#00ad64" stroke="#00ad64"></path><path d="M114.1 177L101.1 300L241.2 227Z" fill="#28c153" stroke="#28c153"></path><path d="M210.2 0L84.1 0L137.1 94Z" fill="#4fd435" stroke="#4fd435"></path><path d="M137.1 94L0 121L114.1 177Z" fill="#28c153" stroke="#28c153"></path><path d="M114.1 177L0 300L101.1 300Z" fill="#4fd435" stroke="#4fd435"></path><path d="M84.1 0L0 121L137.1 94Z" fill="#4fd435" stroke="#4fd435"></path><path d="M0 121L0 164L114.1 177Z" fill="#13b75d" stroke="#13b75d"></path><path d="M1000 199L1000 119L880.9 223Z" fill="#00ad64" stroke="#00ad64"></path><path d="M880.9 223L1000 119L848.9 99Z" fill="#3bcb46" stroke="#3bcb46"></path><path d="M84.1 0L0 0L0 121Z" fill="#4fd435" stroke="#4fd435"></path><path d="M1000 300L1000 199L880.9 223Z" fill="#00996c" stroke="#00996c"></path><path d="M0 164L0 300L114.1 177Z" fill="#00a369" stroke="#00a369"></path><path d="M1000 119L1000 0L848.9 99Z" fill="#64dd17" stroke="#64dd17"></path><path d="M859.9 300L1000 300L880.9 223Z" fill="#00ad64" stroke="#00ad64"></path></g></svg>