<svg id="visual" viewBox="0 0 900 300" width="900" height="300" xmlns="http://www.w3.org/2000/svg" xmlns:xlink="http://www.w3.org/1999/xlink" version="1.1"><g stroke-width="1" stroke-linejoin="bevel"><path d="M505 203L518 300L581 300Z" fill="#13b75d" stroke="#13b75d"></path><path d="M581 300L620 209L505 203Z" fill="#00996c" stroke="#00996c"></path><path d="M581 300L698 300L620 209Z" fill="#3bcb46" stroke="#3bcb46"></path><path d="M633 83L521 84L620 209Z" fill="#13b75d" stroke="#13b75d"></path><path d="M620 209L521 84L505 203Z" fill="#00996c" stroke="#00996c"></path><path d="M360 228L377 300L505 203Z" fill="#3bcb46" stroke="#3bcb46"></path><path d="M505 203L377 300L518 300Z" fill="#008e6e" stroke="#008e6e"></path><path d="M704 84L633 83L620 209Z" fill="#00a369" stroke="#00a369"></path><path d="M367 89L360 228L505 203Z" fill="#13b75d" stroke="#13b75d"></path><path d="M698 300L734 193L620 209Z" fill="#3bcb46" stroke="#3bcb46"></path><path d="M698 300L768 230L734 193Z" fill="#00846d" stroke="#00846d"></path><path d="M734 193L704 84L620 209Z" fill="#00ad64" stroke="#00ad64"></path><path d="M773 97L704 84L734 193Z" fill="#00846d" stroke="#00846d"></path><path d="M698 300L770 300L768 230Z" fill="#28c153" stroke="#28c153"></path><path d="M521 84L367 89L505 203Z" fill="#00996c" stroke="#00996c"></path><path d="M593 0L519 0L521 84Z" fill="#00ad64" stroke="#00ad64"></path><path d="M521 84L383 0L367 89Z" fill="#00ad64" stroke="#00ad64"></path><path d="M593 0L521 84L633 83Z" fill="#00a369" stroke="#00a369"></path><path d="M367 89L308 184L360 228Z" fill="#00796b" stroke="#00796b"></path><path d="M360 228L261 300L377 300Z" fill="#28c153" stroke="#28c153"></path><path d="M692 0L593 0L633 83Z" fill="#00a369" stroke="#00a369"></path><path d="M768 230L773 97L734 193Z" fill="#4fd435" stroke="#4fd435"></path><path d="M704 84L692 0L633 83Z" fill="#00ad64" stroke="#00ad64"></path><path d="M900 115L773 97L768 230Z" fill="#13b75d" stroke="#13b75d"></path><path d="M773 97L692 0L704 84Z" fill="#3bcb46" stroke="#3bcb46"></path><path d="M308 184L261 300L360 228Z" fill="#008e6e" stroke="#008e6e"></path><path d="M519 0L383 0L521 84Z" fill="#00996c" stroke="#00996c"></path><path d="M367 89L277 81L308 184Z" fill="#64dd17" stroke="#64dd17"></path><path d="M317 0L277 81L367 89Z" fill="#00796b" stroke="#00796b"></path><path d="M190 201L229 300L261 300Z" fill="#00846d" stroke="#00846d"></path><path d="M190 201L261 300L308 184Z" fill="#4fd435" stroke="#4fd435"></path><path d="M383 0L317 0L367 89Z" fill="#4fd435" stroke="#4fd435"></path><path d="M770 300L900 231L768 230Z" fill="#64dd17" stroke="#64dd17"></path><path d="M773 97L812 0L692 0Z" fill="#008e6e" stroke="#008e6e"></path><path d="M770 300L900 300L900 231Z" fill="#00846d" stroke="#00846d"></path><path d="M900 115L812 0L773 97Z" fill="#00996c" stroke="#00996c"></path><path d="M191 124L308 184L277 81Z" fill="#00996c" stroke="#00996c"></path><path d="M191 124L190 201L308 184Z" fill="#28c153" stroke="#28c153"></path><path d="M900 231L900 115L768 230Z" fill="#00a369" stroke="#00a369"></path><path d="M211 0L191 124L277 81Z" fill="#28c153" stroke="#28c153"></path><path d="M190 201L137 300L229 300Z" fill="#008e6e" stroke="#008e6e"></path><path d="M108 197L137 300L190 201Z" fill="#28c153" stroke="#28c153"></path><path d="M317 0L211 0L277 81Z" fill="#008e6e" stroke="#008e6e"></path><path d="M191 124L130 132L190 201Z" fill="#00796b" stroke="#00796b"></path><path d="M900 115L900 0L812 0Z" fill="#64dd17" stroke="#64dd17"></path><path d="M106 0L130 132L191 124Z" fill="#008e6e" stroke="#008e6e"></path><path d="M130 132L108 197L190 201Z" fill="#00ad64" stroke="#00ad64"></path><path d="M211 0L106 0L191 124Z" fill="#00846d" stroke="#00846d"></path><path d="M0 105L0 192L108 197Z" fill="#00a369" stroke="#00a369"></path><path d="M108 197L0 300L137 300Z" fill="#00996c" stroke="#00996c"></path><path d="M0 192L0 300L108 197Z" fill="#00846d" stroke="#00846d"></path><path d="M0 105L108 197L130 132Z" fill="#13b75d" stroke="#13b75d"></path><path d="M106 0L0 105L130 132Z" fill="#13b75d" stroke="#13b75d"></path><path d="M106 0L0 0L0 105Z" fill="#64dd17" stroke="#64dd17"></path></g></svg>