<svg id="visual" viewBox="0 0 600 300" width="600" height="300" xmlns="http://www.w3.org/2000/svg" xmlns:xlink="http://www.w3.org/1999/xlink" version="1.1"><g stroke-width="1" stroke-linejoin="bevel"><path d="M320.3 171L266.7 184L300.3 240Z" fill="#28c153" stroke="#28c153"></path><path d="M300.3 240L389 207L320.3 171Z" fill="#00996c" stroke="#00996c"></path><path d="M266.7 184L234.7 271L300.3 240Z" fill="#4fd435" stroke="#4fd435"></path><path d="M300.3 240L365 273L389 207Z" fill="#00996c" stroke="#00996c"></path><path d="M364.3 300L365 273L300.3 240Z" fill="#00796b" stroke="#00796b"></path><path d="M309.3 105L303.7 105L320.3 171Z" fill="#64dd17" stroke="#64dd17"></path><path d="M320.3 171L303.7 105L266.7 184Z" fill="#00a369" stroke="#00a369"></path><path d="M429 107L309.3 105L320.3 171Z" fill="#008e6e" stroke="#008e6e"></path><path d="M234.7 271L255.7 300L300.3 240Z" fill="#00a369" stroke="#00a369"></path><path d="M303.7 105L199 155L266.7 184Z" fill="#4fd435" stroke="#4fd435"></path><path d="M266.7 184L178 245L234.7 271Z" fill="#00996c" stroke="#00996c"></path><path d="M255.7 300L364.3 300L300.3 240Z" fill="#64dd17" stroke="#64dd17"></path><path d="M431.7 300L461.7 213L389 207Z" fill="#00846d" stroke="#00846d"></path><path d="M199 155L178 245L266.7 184Z" fill="#28c153" stroke="#28c153"></path><path d="M234.7 271L192 300L255.7 300Z" fill="#64dd17" stroke="#64dd17"></path><path d="M199 155L160.3 214L178 245Z" fill="#00846d" stroke="#00846d"></path><path d="M104.3 300L192 300L178 245Z" fill="#00846d" stroke="#00846d"></path><path d="M178 245L192 300L234.7 271Z" fill="#00a369" stroke="#00a369"></path><path d="M231.7 54L193 95L303.7 105Z" fill="#00846d" stroke="#00846d"></path><path d="M303.7 105L193 95L199 155Z" fill="#00996c" stroke="#00996c"></path><path d="M199 155L117.3 156L160.3 214Z" fill="#64dd17" stroke="#64dd17"></path><path d="M474.7 169L429 107L389 207Z" fill="#28c153" stroke="#28c153"></path><path d="M389 207L429 107L320.3 171Z" fill="#008e6e" stroke="#008e6e"></path><path d="M273.7 0L231.7 54L303.7 105Z" fill="#64dd17" stroke="#64dd17"></path><path d="M431.7 300L389 207L365 273Z" fill="#00796b" stroke="#00796b"></path><path d="M343.3 36L303.7 105L309.3 105Z" fill="#00996c" stroke="#00996c"></path><path d="M364.3 300L431.7 300L365 273Z" fill="#00796b" stroke="#00796b"></path><path d="M431.7 300L435 300L461.7 213Z" fill="#64dd17" stroke="#64dd17"></path><path d="M155.3 0L167 95L193 95Z" fill="#008e6e" stroke="#008e6e"></path><path d="M193 95L167 95L199 155Z" fill="#00796b" stroke="#00796b"></path><path d="M429 107L343.3 36L309.3 105Z" fill="#00846d" stroke="#00846d"></path><path d="M461.7 213L474.7 169L389 207Z" fill="#00ad64" stroke="#00ad64"></path><path d="M167 95L117.3 156L199 155Z" fill="#00846d" stroke="#00846d"></path><path d="M160.3 214L104.3 300L178 245Z" fill="#00996c" stroke="#00996c"></path><path d="M155.3 0L139.3 87L167 95Z" fill="#00796b" stroke="#00796b"></path><path d="M167 95L139.3 87L117.3 156Z" fill="#00ad64" stroke="#00ad64"></path><path d="M474.7 169L467.7 94L429 107Z" fill="#00846d" stroke="#00846d"></path><path d="M429 107L415 29L343.3 36Z" fill="#28c153" stroke="#28c153"></path><path d="M343.3 36L273.7 0L303.7 105Z" fill="#13b75d" stroke="#13b75d"></path><path d="M155.3 0L104.7 49L139.3 87Z" fill="#00846d" stroke="#00846d"></path><path d="M366.3 0L273.7 0L343.3 36Z" fill="#3bcb46" stroke="#3bcb46"></path><path d="M55.7 205L95.3 186L26.7 114Z" fill="#64dd17" stroke="#64dd17"></path><path d="M117.3 156L95.3 186L160.3 214Z" fill="#00846d" stroke="#00846d"></path><path d="M467.7 94L415 29L429 107Z" fill="#00796b" stroke="#00796b"></path><path d="M273.7 0L238 0L231.7 54Z" fill="#28c153" stroke="#28c153"></path><path d="M415 29L366.3 0L343.3 36Z" fill="#28c153" stroke="#28c153"></path><path d="M61.7 241L104.3 300L160.3 214Z" fill="#28c153" stroke="#28c153"></path><path d="M435 300L501.3 300L461.7 213Z" fill="#28c153" stroke="#28c153"></path><path d="M570.3 180L516.3 137L474.7 169Z" fill="#00846d" stroke="#00846d"></path><path d="M516.3 137L500.7 99L467.7 94Z" fill="#00ad64" stroke="#00ad64"></path><path d="M516.3 137L467.7 94L474.7 169Z" fill="#00a369" stroke="#00a369"></path><path d="M455.7 0L432 0L415 29Z" fill="#00a369" stroke="#00a369"></path><path d="M570.3 180L474.7 169L461.7 213Z" fill="#64dd17" stroke="#64dd17"></path><path d="M95.3 186L61.7 241L160.3 214Z" fill="#3bcb46" stroke="#3bcb46"></path><path d="M55.7 205L61.7 241L95.3 186Z" fill="#00a369" stroke="#00a369"></path><path d="M455.7 0L415 29L467.7 94Z" fill="#28c153" stroke="#28c153"></path><path d="M415 29L432 0L366.3 0Z" fill="#00846d" stroke="#00846d"></path><path d="M26.7 114L95.3 186L117.3 156Z" fill="#00796b" stroke="#00796b"></path><path d="M155.3 0L193 95L231.7 54Z" fill="#64dd17" stroke="#64dd17"></path><path d="M139.3 87L26.7 114L117.3 156Z" fill="#13b75d" stroke="#13b75d"></path><path d="M238 0L155.3 0L231.7 54Z" fill="#00846d" stroke="#00846d"></path><path d="M547.3 45L455.7 0L467.7 94Z" fill="#00846d" stroke="#00846d"></path><path d="M0 243L57.7 300L61.7 241Z" fill="#28c153" stroke="#28c153"></path><path d="M61.7 241L57.7 300L104.3 300Z" fill="#00ad64" stroke="#00ad64"></path><path d="M501.3 300L557.3 260L461.7 213Z" fill="#64dd17" stroke="#64dd17"></path><path d="M600 90L547.3 45L500.7 99Z" fill="#00ad64" stroke="#00ad64"></path><path d="M500.7 99L547.3 45L467.7 94Z" fill="#3bcb46" stroke="#3bcb46"></path><path d="M557.3 260L570.3 180L461.7 213Z" fill="#28c153" stroke="#28c153"></path><path d="M0 100L26.7 114L0 35Z" fill="#00996c" stroke="#00996c"></path><path d="M104.7 49L26.7 114L139.3 87Z" fill="#28c153" stroke="#28c153"></path><path d="M55.7 205L0 243L61.7 241Z" fill="#00846d" stroke="#00846d"></path><path d="M600 90L500.7 99L516.3 137Z" fill="#00796b" stroke="#00796b"></path><path d="M26.7 114L0 212L55.7 205Z" fill="#00846d" stroke="#00846d"></path><path d="M600 219L600 206L570.3 180Z" fill="#00846d" stroke="#00846d"></path><path d="M570.3 180L600 90L516.3 137Z" fill="#28c153" stroke="#28c153"></path><path d="M557.3 260L600 219L570.3 180Z" fill="#00ad64" stroke="#00ad64"></path><path d="M0 212L0 243L55.7 205Z" fill="#3bcb46" stroke="#3bcb46"></path><path d="M0 243L0 300L57.7 300Z" fill="#64dd17" stroke="#64dd17"></path><path d="M501.3 300L600 300L557.3 260Z" fill="#00796b" stroke="#00796b"></path><path d="M557.3 260L600 300L600 219Z" fill="#00ad64" stroke="#00ad64"></path><path d="M0 35L26.7 114L104.7 49Z" fill="#00ad64" stroke="#00ad64"></path><path d="M26.7 114L0 100L0 212Z" fill="#00846d" stroke="#00846d"></path><path d="M155.3 0L52.7 0L104.7 49Z" fill="#28c153" stroke="#28c153"></path><path d="M600 206L600 90L570.3 180Z" fill="#28c153" stroke="#28c153"></path><path d="M600 0L566.3 0L547.3 45Z" fill="#00a369" stroke="#00a369"></path><path d="M547.3 45L566.3 0L455.7 0Z" fill="#00ad64" stroke="#00ad64"></path><path d="M52.7 0L0 35L104.7 49Z" fill="#00996c" stroke="#00996c"></path><path d="M52.7 0L0 0L0 35Z" fill="#64dd17" stroke="#64dd17"></path><path d="M600 90L600 0L547.3 45Z" fill="#13b75d" stroke="#13b75d"></path></g></svg>