<svg id="visual" viewBox="0 0 1024 768" width="1024" height="768" xmlns="http://www.w3.org/2000/svg" xmlns:xlink="http://www.w3.org/1999/xlink" version="1.1"><rect x="0" y="0" width="1024" height="768" fill="#00796B"></rect><path d="M0 151L24.3 150.3C48.7 149.7 97.3 148.3 146.2 152.5C195 156.7 244 166.3 292.8 198.3C341.7 230.3 390.3 284.7 439 280.8C487.7 277 536.3 215 585 197.8C633.7 180.7 682.3 208.3 731.2 228.2C780 248 829 260 877.8 265.7C926.7 271.3 975.3 270.7 999.7 270.3L1024 270L1024 769L999.7 769C975.3 769 926.7 769 877.8 769C829 769 780 769 731.2 769C682.3 769 633.7 769 585 769C536.3 769 487.7 769 439 769C390.3 769 341.7 769 292.8 769C244 769 195 769 146.2 769C97.3 769 48.7 769 24.3 769L0 769Z" fill="#00796b"></path><path d="M0 326L24.3 344C48.7 362 97.3 398 146.2 383.2C195 368.3 244 302.7 292.8 297.2C341.7 291.7 390.3 346.3 439 352.3C487.7 358.3 536.3 315.7 585 321.5C633.7 327.3 682.3 381.7 731.2 405C780 428.3 829 420.7 877.8 402.3C926.7 384 975.3 355 999.7 340.5L1024 326L1024 769L999.7 769C975.3 769 926.7 769 877.8 769C829 769 780 769 731.2 769C682.3 769 633.7 769 585 769C536.3 769 487.7 769 439 769C390.3 769 341.7 769 292.8 769C244 769 195 769 146.2 769C97.3 769 48.7 769 24.3 769L0 769Z" fill="#008e6e"></path><path d="M0 443L24.3 446.5C48.7 450 97.3 457 146.2 459.5C195 462 244 460 292.8 454.5C341.7 449 390.3 440 439 444.5C487.7 449 536.3 467 585 455C633.7 443 682.3 401 731.2 393C780 385 829 411 877.8 413.2C926.7 415.3 975.3 393.7 999.7 382.8L1024 372L1024 769L999.7 769C975.3 769 926.7 769 877.8 769C829 769 780 769 731.2 769C682.3 769 633.7 769 585 769C536.3 769 487.7 769 439 769C390.3 769 341.7 769 292.8 769C244 769 195 769 146.2 769C97.3 769 48.7 769 24.3 769L0 769Z" fill="#00a369"></path><path d="M0 461L24.3 472C48.7 483 97.3 505 146.2 512.2C195 519.3 244 511.7 292.8 496.7C341.7 481.7 390.3 459.3 439 470.3C487.7 481.3 536.3 525.7 585 546C633.7 566.3 682.3 562.7 731.2 563C780 563.3 829 567.7 877.8 553.5C926.7 539.3 975.3 506.7 999.7 490.3L1024 474L1024 769L999.7 769C975.3 769 926.7 769 877.8 769C829 769 780 769 731.2 769C682.3 769 633.7 769 585 769C536.3 769 487.7 769 439 769C390.3 769 341.7 769 292.8 769C244 769 195 769 146.2 769C97.3 769 48.7 769 24.3 769L0 769Z" fill="#13b75d"></path><path d="M0 567L24.3 563.2C48.7 559.3 97.3 551.7 146.2 549.7C195 547.7 244 551.3 292.8 551.5C341.7 551.7 390.3 548.3 439 556.8C487.7 565.3 536.3 585.7 585 585.3C633.7 585 682.3 564 731.2 550.8C780 537.7 829 532.3 877.8 549.2C926.7 566 975.3 605 999.7 624.5L1024 644L1024 769L999.7 769C975.3 769 926.7 769 877.8 769C829 769 780 769 731.2 769C682.3 769 633.7 769 585 769C536.3 769 487.7 769 439 769C390.3 769 341.7 769 292.8 769C244 769 195 769 146.2 769C97.3 769 48.7 769 24.3 769L0 769Z" fill="#3bcb46"></path><path d="M0 617L24.3 628.5C48.7 640 97.3 663 146.2 669.3C195 675.7 244 665.3 292.8 669.5C341.7 673.7 390.3 692.3 439 689.2C487.7 686 536.3 661 585 649.2C633.7 637.3 682.3 638.7 731.2 639C780 639.3 829 638.7 877.8 643.8C926.7 649 975.3 660 999.7 665.5L1024 671L1024 769L999.7 769C975.3 769 926.7 769 877.8 769C829 769 780 769 731.2 769C682.3 769 633.7 769 585 769C536.3 769 487.7 769 439 769C390.3 769 341.7 769 292.8 769C244 769 195 769 146.2 769C97.3 769 48.7 769 24.3 769L0 769Z" fill="#64dd17"></path></svg>