<svg id="visual" viewBox="0 0 1360 768" width="1360" height="768" xmlns="http://www.w3.org/2000/svg" xmlns:xlink="http://www.w3.org/1999/xlink" version="1.1"><rect x="0" y="0" width="1360" height="768" fill="#00796B"></rect><path d="M0 151L32.3 150.3C64.7 149.7 129.3 148.3 194.2 152.5C259 156.7 324 166.3 388.8 198.3C453.7 230.3 518.3 284.7 583 280.8C647.7 277 712.3 215 777 197.8C841.7 180.7 906.3 208.3 971.2 228.2C1036 248 1101 260 1165.8 265.7C1230.7 271.3 1295.3 270.7 1327.7 270.3L1360 270L1360 769L1327.7 769C1295.3 769 1230.7 769 1165.8 769C1101 769 1036 769 971.2 769C906.3 769 841.7 769 777 769C712.3 769 647.7 769 583 769C518.3 769 453.7 769 388.8 769C324 769 259 769 194.2 769C129.3 769 64.7 769 32.3 769L0 769Z" fill="#00796b"></path><path d="M0 326L32.3 344C64.7 362 129.3 398 194.2 383.2C259 368.3 324 302.7 388.8 297.2C453.7 291.7 518.3 346.3 583 352.3C647.7 358.3 712.3 315.7 777 321.5C841.7 327.3 906.3 381.7 971.2 405C1036 428.3 1101 420.7 1165.8 402.3C1230.7 384 1295.3 355 1327.7 340.5L1360 326L1360 769L1327.7 769C1295.3 769 1230.7 769 1165.8 769C1101 769 1036 769 971.2 769C906.3 769 841.7 769 777 769C712.3 769 647.7 769 583 769C518.3 769 453.7 769 388.8 769C324 769 259 769 194.2 769C129.3 769 64.7 769 32.3 769L0 769Z" fill="#008e6e"></path><path d="M0 443L32.3 446.5C64.7 450 129.3 457 194.2 459.5C259 462 324 460 388.8 454.5C453.7 449 518.3 440 583 444.5C647.7 449 712.3 467 777 455C841.7 443 906.3 401 971.2 393C1036 385 1101 411 1165.8 413.2C1230.7 415.3 1295.3 393.7 1327.7 382.8L1360 372L1360 769L1327.7 769C1295.3 769 1230.7 769 1165.8 769C1101 769 1036 769 971.2 769C906.3 769 841.7 769 777 769C712.3 769 647.7 769 583 769C518.3 769 453.7 769 388.8 769C324 769 259 769 194.2 769C129.3 769 64.7 769 32.3 769L0 769Z" fill="#00a369"></path><path d="M0 461L32.3 472C64.7 483 129.3 505 194.2 512.2C259 519.3 324 511.7 388.8 496.7C453.7 481.7 518.3 459.3 583 470.3C647.7 481.3 712.3 525.7 777 546C841.7 566.3 906.3 562.7 971.2 563C1036 563.3 1101 567.7 1165.8 553.5C1230.7 539.3 1295.3 506.7 1327.7 490.3L1360 474L1360 769L1327.7 769C1295.3 769 1230.7 769 1165.8 769C1101 769 1036 769 971.2 769C906.3 769 841.7 769 777 769C712.3 769 647.7 769 583 769C518.3 769 453.7 769 388.8 769C324 769 259 769 194.2 769C129.3 769 64.7 769 32.3 769L0 769Z" fill="#13b75d"></path><path d="M0 567L32.3 563.2C64.7 559.3 129.3 551.7 194.2 549.7C259 547.7 324 551.3 388.8 551.5C453.7 551.7 518.3 548.3 583 556.8C647.7 565.3 712.3 585.7 777 585.3C841.7 585 906.3 564 971.2 550.8C1036 537.7 1101 532.3 1165.8 549.2C1230.7 566 1295.3 605 1327.7 624.5L1360 644L1360 769L1327.7 769C1295.3 769 1230.7 769 1165.8 769C1101 769 1036 769 971.2 769C906.3 769 841.7 769 777 769C712.3 769 647.7 769 583 769C518.3 769 453.7 769 388.8 769C324 769 259 769 194.2 769C129.3 769 64.7 769 32.3 769L0 769Z" fill="#3bcb46"></path><path d="M0 617L32.3 628.5C64.7 640 129.3 663 194.2 669.3C259 675.7 324 665.3 388.8 669.5C453.7 673.7 518.3 692.3 583 689.2C647.7 686 712.3 661 777 649.2C841.7 637.3 906.3 638.7 971.2 639C1036 639.3 1101 638.7 1165.8 643.8C1230.7 649 1295.3 660 1327.7 665.5L1360 671L1360 769L1327.7 769C1295.3 769 1230.7 769 1165.8 769C1101 769 1036 769 971.2 769C906.3 769 841.7 769 777 769C712.3 769 647.7 769 583 769C518.3 769 453.7 769 388.8 769C324 769 259 769 194.2 769C129.3 769 64.7 769 32.3 769L0 769Z" fill="#64dd17"></path></svg>