<svg id="visual" viewBox="0 0 1440 1110" width="1440" height="1110" xmlns="http://www.w3.org/2000/svg" xmlns:xlink="http://www.w3.org/1999/xlink" version="1.1"><rect x="0" y="0" width="1440" height="1110" fill="#00796B"></rect><path d="M0 219L34.3 218C68.7 217 137.3 215 205.8 221C274.3 227 342.7 241 411.2 287.2C479.7 333.3 548.3 411.7 617 406.2C685.7 400.7 754.3 311.3 823 286.5C891.7 261.7 960.3 301.3 1028.8 329.8C1097.3 358.3 1165.7 375.7 1234.2 384C1302.7 392.3 1371.3 391.7 1405.7 391.3L1440 391L1440 1111L1405.7 1111C1371.3 1111 1302.7 1111 1234.2 1111C1165.7 1111 1097.3 1111 1028.8 1111C960.3 1111 891.7 1111 823 1111C754.3 1111 685.7 1111 617 1111C548.3 1111 479.7 1111 411.2 1111C342.7 1111 274.3 1111 205.8 1111C137.3 1111 68.7 1111 34.3 1111L0 1111Z" fill="#00796b"></path><path d="M0 472L34.3 497.8C68.7 523.7 137.3 575.3 205.8 553.7C274.3 532 342.7 437 411.2 429.2C479.7 421.3 548.3 500.7 617 509.5C685.7 518.3 754.3 456.7 823 465.2C891.7 473.7 960.3 552.3 1028.8 586C1097.3 619.7 1165.7 608.3 1234.2 581.8C1302.7 555.3 1371.3 513.7 1405.7 492.8L1440 472L1440 1111L1405.7 1111C1371.3 1111 1302.7 1111 1234.2 1111C1165.7 1111 1097.3 1111 1028.8 1111C960.3 1111 891.7 1111 823 1111C754.3 1111 685.7 1111 617 1111C548.3 1111 479.7 1111 411.2 1111C342.7 1111 274.3 1111 205.8 1111C137.3 1111 68.7 1111 34.3 1111L0 1111Z" fill="#008e6e"></path><path d="M0 640L34.3 645.2C68.7 650.3 137.3 660.7 205.8 664.5C274.3 668.3 342.7 665.7 411.2 657.8C479.7 650 548.3 637 617 643.3C685.7 649.7 754.3 675.3 823 658C891.7 640.7 960.3 580.3 1028.8 568.8C1097.3 557.3 1165.7 594.7 1234.2 597.7C1302.7 600.7 1371.3 569.3 1405.7 553.7L1440 538L1440 1111L1405.7 1111C1371.3 1111 1302.7 1111 1234.2 1111C1165.7 1111 1097.3 1111 1028.8 1111C960.3 1111 891.7 1111 823 1111C754.3 1111 685.7 1111 617 1111C548.3 1111 479.7 1111 411.2 1111C342.7 1111 274.3 1111 205.8 1111C137.3 1111 68.7 1111 34.3 1111L0 1111Z" fill="#00a369"></path><path d="M0 667L34.3 683C68.7 699 137.3 731 205.8 741.3C274.3 751.7 342.7 740.3 411.2 718.3C479.7 696.3 548.3 663.7 617 679.7C685.7 695.7 754.3 760.3 823 790C891.7 819.7 960.3 814.3 1028.8 814.7C1097.3 815 1165.7 821 1234.2 800.3C1302.7 779.7 1371.3 732.3 1405.7 708.7L1440 685L1440 1111L1405.7 1111C1371.3 1111 1302.7 1111 1234.2 1111C1165.7 1111 1097.3 1111 1028.8 1111C960.3 1111 891.7 1111 823 1111C754.3 1111 685.7 1111 617 1111C548.3 1111 479.7 1111 411.2 1111C342.7 1111 274.3 1111 205.8 1111C137.3 1111 68.7 1111 34.3 1111L0 1111Z" fill="#13b75d"></path><path d="M0 820L34.3 814.3C68.7 808.7 137.3 797.3 205.8 794.5C274.3 791.7 342.7 797.3 411.2 797.8C479.7 798.3 548.3 793.7 617 805.8C685.7 818 754.3 847 823 846.3C891.7 845.7 960.3 815.3 1028.8 796.3C1097.3 777.3 1165.7 769.7 1234.2 794C1302.7 818.3 1371.3 874.7 1405.7 902.8L1440 931L1440 1111L1405.7 1111C1371.3 1111 1302.7 1111 1234.2 1111C1165.7 1111 1097.3 1111 1028.8 1111C960.3 1111 891.7 1111 823 1111C754.3 1111 685.7 1111 617 1111C548.3 1111 479.7 1111 411.2 1111C342.7 1111 274.3 1111 205.8 1111C137.3 1111 68.7 1111 34.3 1111L0 1111Z" fill="#3bcb46"></path><path d="M0 893L34.3 909.5C68.7 926 137.3 959 205.8 968.2C274.3 977.3 342.7 962.7 411.2 968.5C479.7 974.3 548.3 1000.7 617 995.8C685.7 991 754.3 955 823 938.2C891.7 921.3 960.3 923.7 1028.8 924.3C1097.3 925 1165.7 924 1234.2 931.3C1302.7 938.7 1371.3 954.3 1405.7 962.2L1440 970L1440 1111L1405.7 1111C1371.3 1111 1302.7 1111 1234.2 1111C1165.7 1111 1097.3 1111 1028.8 1111C960.3 1111 891.7 1111 823 1111C754.3 1111 685.7 1111 617 1111C548.3 1111 479.7 1111 411.2 1111C342.7 1111 274.3 1111 205.8 1111C137.3 1111 68.7 1111 34.3 1111L0 1111Z" fill="#64dd17"></path></svg>