<svg id="visual" viewBox="0 0 1920 1080" width="1920" height="1080" xmlns="http://www.w3.org/2000/svg" xmlns:xlink="http://www.w3.org/1999/xlink" version="1.1"><rect x="0" y="0" width="1920" height="1080" fill="#00796B"></rect><path d="M0 213L45.7 212C91.3 211 182.7 209 274.2 214.8C365.7 220.7 457.3 234.3 548.8 279.3C640.3 324.3 731.7 400.7 823 395.3C914.3 390 1005.7 303 1097 278.8C1188.3 254.7 1279.7 293.3 1371.2 321C1462.7 348.7 1554.3 365.3 1645.8 373.3C1737.3 381.3 1828.7 380.7 1874.3 380.3L1920 380L1920 1081L1874.3 1081C1828.7 1081 1737.3 1081 1645.8 1081C1554.3 1081 1462.7 1081 1371.2 1081C1279.7 1081 1188.3 1081 1097 1081C1005.7 1081 914.3 1081 823 1081C731.7 1081 640.3 1081 548.8 1081C457.3 1081 365.7 1081 274.2 1081C182.7 1081 91.3 1081 45.7 1081L0 1081Z" fill="#00796b"></path><path d="M0 459L45.7 484.3C91.3 509.7 182.7 560.3 274.2 539.3C365.7 518.3 457.3 425.7 548.8 417.8C640.3 410 731.7 487 823 495.5C914.3 504 1005.7 444 1097 452.3C1188.3 460.7 1279.7 537.3 1371.2 570.2C1462.7 603 1554.3 592 1645.8 566.2C1737.3 540.3 1828.7 499.7 1874.3 479.3L1920 459L1920 1081L1874.3 1081C1828.7 1081 1737.3 1081 1645.8 1081C1554.3 1081 1462.7 1081 1371.2 1081C1279.7 1081 1188.3 1081 1097 1081C1005.7 1081 914.3 1081 823 1081C731.7 1081 640.3 1081 548.8 1081C457.3 1081 365.7 1081 274.2 1081C182.7 1081 91.3 1081 45.7 1081L0 1081Z" fill="#008e6e"></path><path d="M0 623L45.7 628C91.3 633 182.7 643 274.2 646.7C365.7 650.3 457.3 647.7 548.8 640C640.3 632.3 731.7 619.7 823 625.8C914.3 632 1005.7 657 1097 640.2C1188.3 623.3 1279.7 564.7 1371.2 553.5C1462.7 542.3 1554.3 578.7 1645.8 581.5C1737.3 584.3 1828.7 553.7 1874.3 538.3L1920 523L1920 1081L1874.3 1081C1828.7 1081 1737.3 1081 1645.8 1081C1554.3 1081 1462.7 1081 1371.2 1081C1279.7 1081 1188.3 1081 1097 1081C1005.7 1081 914.3 1081 823 1081C731.7 1081 640.3 1081 548.8 1081C457.3 1081 365.7 1081 274.2 1081C182.7 1081 91.3 1081 45.7 1081L0 1081Z" fill="#00a369"></path><path d="M0 649L45.7 664.5C91.3 680 182.7 711 274.2 721.2C365.7 731.3 457.3 720.7 548.8 699.3C640.3 678 731.7 646 823 661.3C914.3 676.7 1005.7 739.3 1097 768.2C1188.3 797 1279.7 792 1371.2 792.5C1462.7 793 1554.3 799 1645.8 779C1737.3 759 1828.7 713 1874.3 690L1920 667L1920 1081L1874.3 1081C1828.7 1081 1737.3 1081 1645.8 1081C1554.3 1081 1462.7 1081 1371.2 1081C1279.7 1081 1188.3 1081 1097 1081C1005.7 1081 914.3 1081 823 1081C731.7 1081 640.3 1081 548.8 1081C457.3 1081 365.7 1081 274.2 1081C182.7 1081 91.3 1081 45.7 1081L0 1081Z" fill="#13b75d"></path><path d="M0 798L45.7 792.5C91.3 787 182.7 776 274.2 773.2C365.7 770.3 457.3 775.7 548.8 776C640.3 776.3 731.7 771.7 823 783.5C914.3 795.3 1005.7 823.7 1097 823.2C1188.3 822.7 1279.7 793.3 1371.2 774.8C1462.7 756.3 1554.3 748.7 1645.8 772.2C1737.3 795.7 1828.7 850.3 1874.3 877.7L1920 905L1920 1081L1874.3 1081C1828.7 1081 1737.3 1081 1645.8 1081C1554.3 1081 1462.7 1081 1371.2 1081C1279.7 1081 1188.3 1081 1097 1081C1005.7 1081 914.3 1081 823 1081C731.7 1081 640.3 1081 548.8 1081C457.3 1081 365.7 1081 274.2 1081C182.7 1081 91.3 1081 45.7 1081L0 1081Z" fill="#3bcb46"></path><path d="M0 868L45.7 884.2C91.3 900.3 182.7 932.7 274.2 941.7C365.7 950.7 457.3 936.3 548.8 942.2C640.3 948 731.7 974 823 969.3C914.3 964.7 1005.7 929.3 1097 912.8C1188.3 896.3 1279.7 898.7 1371.2 899.3C1462.7 900 1554.3 899 1645.8 906.2C1737.3 913.3 1828.7 928.7 1874.3 936.3L1920 944L1920 1081L1874.3 1081C1828.7 1081 1737.3 1081 1645.8 1081C1554.3 1081 1462.7 1081 1371.2 1081C1279.7 1081 1188.3 1081 1097 1081C1005.7 1081 914.3 1081 823 1081C731.7 1081 640.3 1081 548.8 1081C457.3 1081 365.7 1081 274.2 1081C182.7 1081 91.3 1081 45.7 1081L0 1081Z" fill="#64dd17"></path></svg>