<svg id="visual" viewBox="0 0 768 1024" width="768" height="1024" xmlns="http://www.w3.org/2000/svg" xmlns:xlink="http://www.w3.org/1999/xlink" version="1.1"><rect x="0" y="0" width="768" height="1024" fill="#00796B"></rect><path d="M0 202L18.3 201C36.7 200 73.3 198 109.8 203.5C146.3 209 182.7 222 219.2 264.7C255.7 307.3 292.3 379.7 329 374.5C365.7 369.3 402.3 286.7 439 263.8C475.7 241 512.3 278 548.8 304.3C585.3 330.7 621.7 346.3 658.2 353.8C694.7 361.3 731.3 360.7 749.7 360.3L768 360L768 1025L749.7 1025C731.3 1025 694.7 1025 658.2 1025C621.7 1025 585.3 1025 548.8 1025C512.3 1025 475.7 1025 439 1025C402.3 1025 365.7 1025 329 1025C292.3 1025 255.7 1025 219.2 1025C182.7 1025 146.3 1025 109.8 1025C73.3 1025 36.7 1025 18.3 1025L0 1025Z" fill="#00796b"></path><path d="M0 435L18.3 459C36.7 483 73.3 531 109.8 511.2C146.3 491.3 182.7 403.7 219.2 396.3C255.7 389 292.3 462 329 470C365.7 478 402.3 421 439 428.8C475.7 436.7 512.3 509.3 548.8 540.5C585.3 571.7 621.7 561.3 658.2 537C694.7 512.7 731.3 474.3 749.7 455.2L768 436L768 1025L749.7 1025C731.3 1025 694.7 1025 658.2 1025C621.7 1025 585.3 1025 548.8 1025C512.3 1025 475.7 1025 439 1025C402.3 1025 365.7 1025 329 1025C292.3 1025 255.7 1025 219.2 1025C182.7 1025 146.3 1025 109.8 1025C73.3 1025 36.7 1025 18.3 1025L0 1025Z" fill="#008e6e"></path><path d="M0 591L18.3 595.7C36.7 600.3 73.3 609.7 109.8 613C146.3 616.3 182.7 613.7 219.2 606.3C255.7 599 292.3 587 329 593C365.7 599 402.3 623 439 607.2C475.7 591.3 512.3 535.7 548.8 525C585.3 514.3 621.7 548.7 658.2 551.3C694.7 554 731.3 525 749.7 510.5L768 496L768 1025L749.7 1025C731.3 1025 694.7 1025 658.2 1025C621.7 1025 585.3 1025 548.8 1025C512.3 1025 475.7 1025 439 1025C402.3 1025 365.7 1025 329 1025C292.3 1025 255.7 1025 219.2 1025C182.7 1025 146.3 1025 109.8 1025C73.3 1025 36.7 1025 18.3 1025L0 1025Z" fill="#00a369"></path><path d="M0 616L18.3 630.5C36.7 645 73.3 674 109.8 683.5C146.3 693 182.7 683 219.2 662.8C255.7 642.7 292.3 612.3 329 627C365.7 641.7 402.3 701.3 439 728.7C475.7 756 512.3 751 548.8 751.3C585.3 751.7 621.7 757.3 658.2 738.3C694.7 719.3 731.3 675.7 749.7 653.8L768 632L768 1025L749.7 1025C731.3 1025 694.7 1025 658.2 1025C621.7 1025 585.3 1025 548.8 1025C512.3 1025 475.7 1025 439 1025C402.3 1025 365.7 1025 329 1025C292.3 1025 255.7 1025 219.2 1025C182.7 1025 146.3 1025 109.8 1025C73.3 1025 36.7 1025 18.3 1025L0 1025Z" fill="#13b75d"></path><path d="M0 757L18.3 751.7C36.7 746.3 73.3 735.7 109.8 733C146.3 730.3 182.7 735.7 219.2 736C255.7 736.3 292.3 731.7 329 742.8C365.7 754 402.3 781 439 780.5C475.7 780 512.3 752 548.8 734.5C585.3 717 621.7 710 658.2 732.3C694.7 754.7 731.3 806.3 749.7 832.2L768 858L768 1025L749.7 1025C731.3 1025 694.7 1025 658.2 1025C621.7 1025 585.3 1025 548.8 1025C512.3 1025 475.7 1025 439 1025C402.3 1025 365.7 1025 329 1025C292.3 1025 255.7 1025 219.2 1025C182.7 1025 146.3 1025 109.8 1025C73.3 1025 36.7 1025 18.3 1025L0 1025Z" fill="#3bcb46"></path><path d="M0 823L18.3 838.3C36.7 853.7 73.3 884.3 109.8 892.8C146.3 901.3 182.7 887.7 219.2 893.2C255.7 898.7 292.3 923.3 329 919C365.7 914.7 402.3 881.3 439 865.7C475.7 850 512.3 852 548.8 852.7C585.3 853.3 621.7 852.7 658.2 859.5C694.7 866.3 731.3 880.7 749.7 887.8L768 895L768 1025L749.7 1025C731.3 1025 694.7 1025 658.2 1025C621.7 1025 585.3 1025 548.8 1025C512.3 1025 475.7 1025 439 1025C402.3 1025 365.7 1025 329 1025C292.3 1025 255.7 1025 219.2 1025C182.7 1025 146.3 1025 109.8 1025C73.3 1025 36.7 1025 18.3 1025L0 1025Z" fill="#64dd17"></path></svg>