<svg id="visual" viewBox="0 0 414 736" width="414" height="736" xmlns="http://www.w3.org/2000/svg" xmlns:xlink="http://www.w3.org/1999/xlink" version="1.1"><rect x="0" y="0" width="414" height="736" fill="#00796B"></rect><path d="M0 145L9.8 144.3C19.7 143.7 39.3 142.3 59 146.3C78.7 150.3 98.3 159.7 118 190.3C137.7 221 157.3 273 177.2 269.3C197 265.7 217 206.3 236.8 189.8C256.7 173.3 276.3 199.7 296 218.5C315.7 237.3 335.3 248.7 355 254.2C374.7 259.7 394.3 259.3 404.2 259.2L414 259L414 737L404.2 737C394.3 737 374.7 737 355 737C335.3 737 315.7 737 296 737C276.3 737 256.7 737 236.8 737C217 737 197 737 177.2 737C157.3 737 137.7 737 118 737C98.3 737 78.7 737 59 737C39.3 737 19.7 737 9.8 737L0 737Z" fill="#00796b"></path><path d="M0 313L9.8 330.2C19.7 347.3 39.3 381.7 59 367.3C78.7 353 98.3 290 118 284.7C137.7 279.3 157.3 331.7 177.2 337.3C197 343 217 302 236.8 307.7C256.7 313.3 276.3 365.7 296 388.2C315.7 410.7 335.3 403.3 355 385.8C374.7 368.3 394.3 340.7 404.2 326.8L414 313L414 737L404.2 737C394.3 737 374.7 737 355 737C335.3 737 315.7 737 296 737C276.3 737 256.7 737 236.8 737C217 737 197 737 177.2 737C157.3 737 137.7 737 118 737C98.3 737 78.7 737 59 737C39.3 737 19.7 737 9.8 737L0 737Z" fill="#008e6e"></path><path d="M0 424L9.8 427.3C19.7 430.7 39.3 437.3 59 439.8C78.7 442.3 98.3 440.7 118 435.5C137.7 430.3 157.3 421.7 177.2 426C197 430.3 217 447.7 236.8 436.2C256.7 424.7 276.3 384.3 296 376.7C315.7 369 335.3 394 355 396C374.7 398 394.3 377 404.2 366.5L414 356L414 737L404.2 737C394.3 737 374.7 737 355 737C335.3 737 315.7 737 296 737C276.3 737 256.7 737 236.8 737C217 737 197 737 177.2 737C157.3 737 137.7 737 118 737C98.3 737 78.7 737 59 737C39.3 737 19.7 737 9.8 737L0 737Z" fill="#00a369"></path><path d="M0 442L9.8 452.5C19.7 463 39.3 484 59 490.8C78.7 497.7 98.3 490.3 118 475.8C137.7 461.3 157.3 439.7 177.2 450.3C197 461 217 504 236.8 523.7C256.7 543.3 276.3 539.7 296 539.8C315.7 540 335.3 544 355 530.3C374.7 516.7 394.3 485.3 404.2 469.7L414 454L414 737L404.2 737C394.3 737 374.7 737 355 737C335.3 737 315.7 737 296 737C276.3 737 256.7 737 236.8 737C217 737 197 737 177.2 737C157.3 737 137.7 737 118 737C98.3 737 78.7 737 59 737C39.3 737 19.7 737 9.8 737L0 737Z" fill="#13b75d"></path><path d="M0 544L9.8 540.2C19.7 536.3 39.3 528.7 59 526.7C78.7 524.7 98.3 528.3 118 528.7C137.7 529 157.3 526 177.2 534C197 542 217 561 236.8 560.5C256.7 560 276.3 540 296 527.5C315.7 515 335.3 510 355 526.2C374.7 542.3 394.3 579.7 404.2 598.3L414 617L414 737L404.2 737C394.3 737 374.7 737 355 737C335.3 737 315.7 737 296 737C276.3 737 256.7 737 236.8 737C217 737 197 737 177.2 737C157.3 737 137.7 737 118 737C98.3 737 78.7 737 59 737C39.3 737 19.7 737 9.8 737L0 737Z" fill="#3bcb46"></path><path d="M0 591L9.8 602C19.7 613 39.3 635 59 641.2C78.7 647.3 98.3 637.7 118 641.7C137.7 645.7 157.3 663.3 177.2 660.2C197 657 217 633 236.8 621.7C256.7 610.3 276.3 611.7 296 612.2C315.7 612.7 335.3 612.3 355 617.3C374.7 622.3 394.3 632.7 404.2 637.8L414 643L414 737L404.2 737C394.3 737 374.7 737 355 737C335.3 737 315.7 737 296 737C276.3 737 256.7 737 236.8 737C217 737 197 737 177.2 737C157.3 737 137.7 737 118 737C98.3 737 78.7 737 59 737C39.3 737 19.7 737 9.8 737L0 737Z" fill="#64dd17"></path></svg>