<svg id="visual" viewBox="0 0 1920 1080" width="1920" height="1080" xmlns="http://www.w3.org/2000/svg" xmlns:xlink="http://www.w3.org/1999/xlink" version="1.1"><rect x="0" y="0" width="1920" height="1080" fill="#64DD17"></rect><defs><linearGradient id="grad1_0" x1="43.8%" y1="100%" x2="100%" y2="0%"><stop offset="14.444444444444446%" stop-color="#64dd17" stop-opacity="1"></stop><stop offset="85.55555555555554%" stop-color="#64dd17" stop-opacity="1"></stop></linearGradient></defs><defs><linearGradient id="grad2_0" x1="0%" y1="100%" x2="56.3%" y2="0%"><stop offset="14.444444444444446%" stop-color="#64dd17" stop-opacity="1"></stop><stop offset="85.55555555555554%" stop-color="#64dd17" stop-opacity="1"></stop></linearGradient></defs><g transform="translate(1920, 1080)"><path d="M-1080 0C-1051.8 -189 -1023.7 -378 -935.3 -540C-847 -702 -698.4 -836.8 -532.5 -922.3C-366.6 -1007.8 -183.3 -1043.9 0 -1080L0 0Z" fill="#00796B"></path></g><g transform="translate(0, 0)"><path d="M1080 0C1043.4 183 1006.9 366.1 921.5 532C836 697.9 701.7 846.8 540 935.3C378.3 1023.8 189.1 1051.9 0 1080L0 0Z" fill="#00796B"></path></g></svg>