<svg id="visual" viewBox="0 0 1920 1080" width="1920" height="1080" xmlns="http://www.w3.org/2000/svg" xmlns:xlink="http://www.w3.org/1999/xlink" version="1.1"><rect x="0" y="0" width="1920" height="1080" fill="#00796B"></rect><path d="M661 0L666.2 25.7C671.3 51.3 681.7 102.7 700.3 154.2C719 205.7 746 257.3 763.2 308.8C780.3 360.3 787.7 411.7 751.3 463C715 514.3 635 565.7 650 617C665 668.3 775 719.7 819.7 771.2C864.3 822.7 843.7 874.3 796.5 925.8C749.3 977.3 675.7 1028.7 638.8 1054.3L602 1080L0 1080L0 1054.3C0 1028.7 0 977.3 0 925.8C0 874.3 0 822.7 0 771.2C0 719.7 0 668.3 0 617C0 565.7 0 514.3 0 463C0 411.7 0 360.3 0 308.8C0 257.3 0 205.7 0 154.2C0 102.7 0 51.3 0 25.7L0 0Z" fill="#00796b"></path><path d="M706 0L696.5 25.7C687 51.3 668 102.7 637.2 154.2C606.3 205.7 563.7 257.3 557.5 308.8C551.3 360.3 581.7 411.7 571.8 463C562 514.3 512 565.7 482.7 617C453.3 668.3 444.7 719.7 438.8 771.2C433 822.7 430 874.3 460.7 925.8C491.3 977.3 555.7 1028.7 587.8 1054.3L620 1080L0 1080L0 1054.3C0 1028.7 0 977.3 0 925.8C0 874.3 0 822.7 0 771.2C0 719.7 0 668.3 0 617C0 565.7 0 514.3 0 463C0 411.7 0 360.3 0 308.8C0 257.3 0 205.7 0 154.2C0 102.7 0 51.3 0 25.7L0 0Z" fill="#009c6c"></path><path d="M517 0L480.5 25.7C444 51.3 371 102.7 350.3 154.2C329.7 205.7 361.3 257.3 384.5 308.8C407.7 360.3 422.3 411.7 432.8 463C443.3 514.3 449.7 565.7 428 617C406.3 668.3 356.7 719.7 333.2 771.2C309.7 822.7 312.3 874.3 319.8 925.8C327.3 977.3 339.7 1028.7 345.8 1054.3L352 1080L0 1080L0 1054.3C0 1028.7 0 977.3 0 925.8C0 874.3 0 822.7 0 771.2C0 719.7 0 668.3 0 617C0 565.7 0 514.3 0 463C0 411.7 0 360.3 0 308.8C0 257.3 0 205.7 0 154.2C0 102.7 0 51.3 0 25.7L0 0Z" fill="#21be56"></path><path d="M301 0L291.7 25.7C282.3 51.3 263.7 102.7 238.8 154.2C214 205.7 183 257.3 187 308.8C191 360.3 230 411.7 250.5 463C271 514.3 273 565.7 260 617C247 668.3 219 719.7 194.2 771.2C169.3 822.7 147.7 874.3 158.8 925.8C170 977.3 214 1028.7 236 1054.3L258 1080L0 1080L0 1054.3C0 1028.7 0 977.3 0 925.8C0 874.3 0 822.7 0 771.2C0 719.7 0 668.3 0 617C0 565.7 0 514.3 0 463C0 411.7 0 360.3 0 308.8C0 257.3 0 205.7 0 154.2C0 102.7 0 51.3 0 25.7L0 0Z" fill="#64dd17"></path></svg>