<svg id="visual" viewBox="0 0 1366 760" width="1366" height="760" xmlns="http://www.w3.org/2000/svg" xmlns:xlink="http://www.w3.org/1999/xlink" version="1.1"><rect x="0" y="0" width="1366" height="760" fill="#00796B"></rect><path d="M470 0L473.8 18.2C477.7 36.3 485.3 72.7 498.7 108.8C512 145 531 181 543.2 217.2C555.3 253.3 560.7 289.7 534.8 325.8C509 362 452 398 462.7 434.2C473.3 470.3 551.7 506.7 583.5 542.8C615.3 579 600.7 615 567 651.2C533.3 687.3 480.7 723.7 454.3 741.8L428 760L0 760L0 741.8C0 723.7 0 687.3 0 651.2C0 615 0 579 0 542.8C0 506.7 0 470.3 0 434.2C0 398 0 362 0 325.8C0 289.7 0 253.3 0 217.2C0 181 0 145 0 108.8C0 72.7 0 36.3 0 18.2L0 0Z" fill="#00796b"></path><path d="M502 0L495.3 18.2C488.7 36.3 475.3 72.7 453.5 108.8C431.7 145 401.3 181 397 217.2C392.7 253.3 414.3 289.7 407.3 325.8C400.3 362 364.7 398 343.8 434.2C323 470.3 317 506.7 312.8 542.8C308.7 579 306.3 615 328 651.2C349.7 687.3 395.3 723.7 418.2 741.8L441 760L0 760L0 741.8C0 723.7 0 687.3 0 651.2C0 615 0 579 0 542.8C0 506.7 0 470.3 0 434.2C0 398 0 362 0 325.8C0 289.7 0 253.3 0 217.2C0 181 0 145 0 108.8C0 72.7 0 36.3 0 18.2L0 0Z" fill="#009c6c"></path><path d="M368 0L342 18.2C316 36.3 264 72.7 249.3 108.8C234.7 145 257.3 181 273.8 217.2C290.3 253.3 300.7 289.7 308.2 325.8C315.7 362 320.3 398 304.8 434.2C289.3 470.3 253.7 506.7 236.8 542.8C220 579 222 615 227.5 651.2C233 687.3 242 723.7 246.5 741.8L251 760L0 760L0 741.8C0 723.7 0 687.3 0 651.2C0 615 0 579 0 542.8C0 506.7 0 470.3 0 434.2C0 398 0 362 0 325.8C0 289.7 0 253.3 0 217.2C0 181 0 145 0 108.8C0 72.7 0 36.3 0 18.2L0 0Z" fill="#21be56"></path><path d="M215 0L208.3 18.2C201.7 36.3 188.3 72.7 170.7 108.8C153 145 131 181 133.8 217.2C136.7 253.3 164.3 289.7 178.8 325.8C193.3 362 194.7 398 185.3 434.2C176 470.3 156 506.7 138.3 542.8C120.7 579 105.3 615 113.3 651.2C121.3 687.3 152.7 723.7 168.3 741.8L184 760L0 760L0 741.8C0 723.7 0 687.3 0 651.2C0 615 0 579 0 542.8C0 506.7 0 470.3 0 434.2C0 398 0 362 0 325.8C0 289.7 0 253.3 0 217.2C0 181 0 145 0 108.8C0 72.7 0 36.3 0 18.2L0 0Z" fill="#64dd17"></path></svg>