<svg id="visual" viewBox="0 0 1366 720" width="1366" height="720" xmlns="http://www.w3.org/2000/svg" xmlns:xlink="http://www.w3.org/1999/xlink" version="1.1"><rect x="0" y="0" width="1366" height="720" fill="#00796B"></rect><path d="M0 430L32.5 429.7C65 429.3 130 428.7 195 430.7C260 432.7 325 437.3 390 452.3C455 467.3 520 492.7 585.2 490.8C650.3 489 715.7 460 780.8 452C846 444 911 457 976 466.3C1041 475.7 1106 481.3 1171 484C1236 486.7 1301 486.3 1333.5 486.2L1366 486L1366 721L1333.5 721C1301 721 1236 721 1171 721C1106 721 1041 721 976 721C911 721 846 721 780.8 721C715.7 721 650.3 721 585.2 721C520 721 455 721 390 721C325 721 260 721 195 721C130 721 65 721 32.5 721L0 721Z" fill="#00796b"></path><path d="M0 512L32.5 520.5C65 529 130 546 195 539C260 532 325 501 390 498.3C455 495.7 520 521.3 585.2 524.2C650.3 527 715.7 507 780.8 509.8C846 512.7 911 538.3 976 549.3C1041 560.3 1106 556.7 1171 548C1236 539.3 1301 525.7 1333.5 518.8L1366 512L1366 721L1333.5 721C1301 721 1236 721 1171 721C1106 721 1041 721 976 721C911 721 846 721 780.8 721C715.7 721 650.3 721 585.2 721C520 721 455 721 390 721C325 721 260 721 195 721C130 721 65 721 32.5 721L0 721Z" fill="#008e6e"></path><path d="M0 567L32.5 568.7C65 570.3 130 573.7 195 574.8C260 576 325 575 390 572.5C455 570 520 566 585.2 568.2C650.3 570.3 715.7 578.7 780.8 573C846 567.3 911 547.7 976 543.8C1041 540 1106 552 1171 553C1236 554 1301 544 1333.5 539L1366 534L1366 721L1333.5 721C1301 721 1236 721 1171 721C1106 721 1041 721 976 721C911 721 846 721 780.8 721C715.7 721 650.3 721 585.2 721C520 721 455 721 390 721C325 721 260 721 195 721C130 721 65 721 32.5 721L0 721Z" fill="#00a369"></path><path d="M0 576L32.5 581.2C65 586.3 130 596.7 195 600C260 603.3 325 599.7 390 592.5C455 585.3 520 574.7 585.2 579.8C650.3 585 715.7 606 780.8 615.7C846 625.3 911 623.7 976 623.8C1041 624 1106 626 1171 619.3C1236 612.7 1301 597.3 1333.5 589.7L1366 582L1366 721L1333.5 721C1301 721 1236 721 1171 721C1106 721 1041 721 976 721C911 721 846 721 780.8 721C715.7 721 650.3 721 585.2 721C520 721 455 721 390 721C325 721 260 721 195 721C130 721 65 721 32.5 721L0 721Z" fill="#13b75d"></path><path d="M0 625L32.5 623.2C65 621.3 130 617.7 195 616.8C260 616 325 618 390 618.2C455 618.3 520 616.7 585.2 620.5C650.3 624.3 715.7 633.7 780.8 633.5C846 633.3 911 623.7 976 617.5C1041 611.3 1106 608.7 1171 616.5C1236 624.3 1301 642.7 1333.5 651.8L1366 661L1366 721L1333.5 721C1301 721 1236 721 1171 721C1106 721 1041 721 976 721C911 721 846 721 780.8 721C715.7 721 650.3 721 585.2 721C520 721 455 721 390 721C325 721 260 721 195 721C130 721 65 721 32.5 721L0 721Z" fill="#3bcb46"></path><path d="M0 649L32.5 654.3C65 659.7 130 670.3 195 673.3C260 676.3 325 671.7 390 673.7C455 675.7 520 684.3 585.2 682.7C650.3 681 715.7 669 780.8 663.5C846 658 911 659 976 659.3C1041 659.7 1106 659.3 1171 661.7C1236 664 1301 669 1333.5 671.5L1366 674L1366 721L1333.5 721C1301 721 1236 721 1171 721C1106 721 1041 721 976 721C911 721 846 721 780.8 721C715.7 721 650.3 721 585.2 721C520 721 455 721 390 721C325 721 260 721 195 721C130 721 65 721 32.5 721L0 721Z" fill="#64dd17"></path></svg>