<svg id="visual" viewBox="0 0 640 320" width="640" height="320" xmlns="http://www.w3.org/2000/svg" xmlns:xlink="http://www.w3.org/1999/xlink" version="1.1"><rect x="0" y="0" width="640" height="320" fill="#00796B"></rect><path d="M258 0L258.2 7.7C258.3 15.3 258.7 30.7 256.8 45.8C255 61 251 76 237.7 91.2C224.3 106.3 201.7 121.7 203.3 137C205 152.3 231 167.7 238.2 183C245.3 198.3 233.7 213.7 225.3 228.8C217 244 212 259 209.7 274.2C207.3 289.3 207.7 304.7 207.8 312.3L208 320L0 320L0 312.3C0 304.7 0 289.3 0 274.2C0 259 0 244 0 228.8C0 213.7 0 198.3 0 183C0 167.7 0 152.3 0 137C0 121.7 0 106.3 0 91.2C0 76 0 61 0 45.8C0 30.7 0 15.3 0 7.7L0 0Z" fill="#00796b"></path><path d="M185 0L177.5 7.7C170 15.3 155 30.7 161.2 45.8C167.3 61 194.7 76 196.8 91.2C199 106.3 176 121.7 173.5 137C171 152.3 189 167.7 186.7 183C184.3 198.3 161.7 213.7 151.8 228.8C142 244 145 259 152.7 274.2C160.3 289.3 172.7 304.7 178.8 312.3L185 320L0 320L0 312.3C0 304.7 0 289.3 0 274.2C0 259 0 244 0 228.8C0 213.7 0 198.3 0 183C0 167.7 0 152.3 0 137C0 121.7 0 106.3 0 91.2C0 76 0 61 0 45.8C0 30.7 0 15.3 0 7.7L0 0Z" fill="#008e6e"></path><path d="M136 0L134.5 7.7C133 15.3 130 30.7 129 45.8C128 61 129 76 131.3 91.2C133.7 106.3 137.3 121.7 135.3 137C133.3 152.3 125.7 167.7 130.7 183C135.7 198.3 153.3 213.7 156.7 228.8C160 244 149 259 148.2 274.2C147.3 289.3 156.7 304.7 161.3 312.3L166 320L0 320L0 312.3C0 304.7 0 289.3 0 274.2C0 259 0 244 0 228.8C0 213.7 0 198.3 0 183C0 167.7 0 152.3 0 137C0 121.7 0 106.3 0 91.2C0 76 0 61 0 45.8C0 30.7 0 15.3 0 7.7L0 0Z" fill="#00a369"></path><path d="M128 0L123.5 7.7C119 15.3 110 30.7 107 45.8C104 61 107 76 113.3 91.2C119.7 106.3 129.3 121.7 124.8 137C120.3 152.3 101.7 167.7 93.2 183C84.7 198.3 86.3 213.7 86.2 228.8C86 244 84 259 89.8 274.2C95.7 289.3 109.3 304.7 116.2 312.3L123 320L0 320L0 312.3C0 304.7 0 289.3 0 274.2C0 259 0 244 0 228.8C0 213.7 0 198.3 0 183C0 167.7 0 152.3 0 137C0 121.7 0 106.3 0 91.2C0 76 0 61 0 45.8C0 30.7 0 15.3 0 7.7L0 0Z" fill="#13b75d"></path><path d="M84 0L85.7 7.7C87.3 15.3 90.7 30.7 91.5 45.8C92.3 61 90.7 76 90.5 91.2C90.3 106.3 91.7 121.7 88.2 137C84.7 152.3 76.3 167.7 76.5 183C76.7 198.3 85.3 213.7 90.8 228.8C96.3 244 98.7 259 91.7 274.2C84.7 289.3 68.3 304.7 60.2 312.3L52 320L0 320L0 312.3C0 304.7 0 289.3 0 274.2C0 259 0 244 0 228.8C0 213.7 0 198.3 0 183C0 167.7 0 152.3 0 137C0 121.7 0 106.3 0 91.2C0 76 0 61 0 45.8C0 30.7 0 15.3 0 7.7L0 0Z" fill="#3bcb46"></path><path d="M63 0L58.3 7.7C53.7 15.3 44.3 30.7 41.7 45.8C39 61 43 76 41.3 91.2C39.7 106.3 32.3 121.7 33.8 137C35.3 152.3 45.7 167.7 50.5 183C55.3 198.3 54.7 213.7 54.5 228.8C54.3 244 54.7 259 52.5 274.2C50.3 289.3 45.7 304.7 43.3 312.3L41 320L0 320L0 312.3C0 304.7 0 289.3 0 274.2C0 259 0 244 0 228.8C0 213.7 0 198.3 0 183C0 167.7 0 152.3 0 137C0 121.7 0 106.3 0 91.2C0 76 0 61 0 45.8C0 30.7 0 15.3 0 7.7L0 0Z" fill="#64dd17"></path></svg>