<svg id="visual" viewBox="0 0 3840 2560" width="3840" height="2560" xmlns="http://www.w3.org/2000/svg" xmlns:xlink="http://www.w3.org/1999/xlink" version="1.1"><rect x="0" y="0" width="3840" height="2560" fill="#00796B"></rect><path d="M1321 0L1331.3 61C1341.7 122 1362.3 244 1399.7 365.8C1437 487.7 1491 609.3 1525.5 731.2C1560 853 1575 975 1502.3 1097C1429.7 1219 1269.3 1341 1299.2 1463C1329 1585 1549 1707 1638.3 1828.8C1727.7 1950.7 1686.3 2072.3 1591.8 2194.2C1497.3 2316 1349.7 2438 1275.8 2499L1202 2560L0 2560L0 2499C0 2438 0 2316 0 2194.2C0 2072.3 0 1950.7 0 1828.8C0 1707 0 1585 0 1463C0 1341 0 1219 0 1097C0 975 0 853 0 731.2C0 609.3 0 487.7 0 365.8C0 244 0 122 0 61L0 0Z" fill="#00796b"></path><path d="M1411 0L1391.8 61C1372.7 122 1334.3 244 1272.8 365.8C1211.3 487.7 1126.7 609.3 1114.7 731.2C1102.7 853 1163.3 975 1143.5 1097C1123.7 1219 1023.3 1341 964.7 1463C906 1585 889 1707 877.5 1828.8C866 1950.7 860 2072.3 921 2194.2C982 2316 1110 2438 1174 2499L1238 2560L0 2560L0 2499C0 2438 0 2316 0 2194.2C0 2072.3 0 1950.7 0 1828.8C0 1707 0 1585 0 1463C0 1341 0 1219 0 1097C0 975 0 853 0 731.2C0 609.3 0 487.7 0 365.8C0 244 0 122 0 61L0 0Z" fill="#009c6c"></path><path d="M1033 0L960 61C887 122 741 244 699.5 365.8C658 487.7 721 609.3 767.3 731.2C813.7 853 843.3 975 864.7 1097C886 1219 899 1341 855.5 1463C812 1585 712 1707 664.8 1828.8C617.7 1950.7 623.3 2072.3 638.5 2194.2C653.7 2316 678.3 2438 690.7 2499L703 2560L0 2560L0 2499C0 2438 0 2316 0 2194.2C0 2072.3 0 1950.7 0 1828.8C0 1707 0 1585 0 1463C0 1341 0 1219 0 1097C0 975 0 853 0 731.2C0 609.3 0 487.7 0 365.8C0 244 0 122 0 61L0 0Z" fill="#21be56"></path><path d="M602 0L583.2 61C564.3 122 526.7 244 477 365.8C427.3 487.7 365.7 609.3 373.8 731.2C382 853 460 975 500.8 1097C541.7 1219 545.3 1341 519.2 1463C493 1585 437 1707 387.3 1828.8C337.7 1950.7 294.3 2072.3 316.5 2194.2C338.7 2316 426.3 2438 470.2 2499L514 2560L0 2560L0 2499C0 2438 0 2316 0 2194.2C0 2072.3 0 1950.7 0 1828.8C0 1707 0 1585 0 1463C0 1341 0 1219 0 1097C0 975 0 853 0 731.2C0 609.3 0 487.7 0 365.8C0 244 0 122 0 61L0 0Z" fill="#64dd17"></path></svg>